<?xml version="1.0" encoding="utf-8"?>
<!-- Generator: Adobe Illustrator 16.0.2, SVG Export Plug-In . SVG Version: 6.00 Build 0)  -->
<!DOCTYPE svg PUBLIC "-//W3C//DTD SVG 1.1//EN" "http://www.w3.org/Graphics/SVG/1.1/DTD/svg11.dtd">
<svg version="1.1" id="Layer_1" xmlns="http://www.w3.org/2000/svg" xmlns:xlink="http://www.w3.org/1999/xlink" x="0px" y="0px"
	 width="500px" height="500px" viewBox="0 0 500 500" enable-background="new 0 0 500 500" xml:space="preserve">
<g id="Background_Complete">
	<g>
		<g>
			<path fill="#E0E0E0" d="M457.234,229.292c-0.015,0.039-0.42-0.108-1.175-0.262c-0.751-0.15-1.872-0.281-3.227-0.085
				c-1.344,0.191-2.93,0.74-4.314,1.889c-1.384,1.128-2.566,2.831-3.04,4.845l-0.014,0.054l-0.186,0.717l-0.274-0.681
				c-0.775-1.915-2.152-3.441-3.646-4.416c-1.497-0.992-3.109-1.411-4.46-1.515c-2.745-0.187-4.35,0.669-4.369,0.556
				c-0.011-0.023,0.365-0.241,1.11-0.482c0.74-0.238,1.87-0.479,3.28-0.414c1.398,0.063,3.097,0.462,4.68,1.481
				c1.578,1,3.035,2.591,3.853,4.609l-0.46,0.037l0.016-0.057c0.501-2.131,1.761-3.914,3.229-5.081
				c1.476-1.189,3.153-1.729,4.552-1.882c1.411-0.158,2.561,0.032,3.313,0.241C456.86,229.059,457.243,229.269,457.234,229.292z"/>
		</g>
	</g>
	<g>
		<g>
			<path fill="#E0E0E0" d="M84.613,170.391c-0.014,0.039-0.42-0.109-1.174-0.263c-0.75-0.149-1.872-0.28-3.226-0.085
				c-1.344,0.191-2.93,0.74-4.315,1.891c-1.384,1.128-2.566,2.831-3.04,4.844l-0.014,0.054l-0.185,0.717l-0.275-0.681
				c-0.776-1.915-2.152-3.44-3.646-4.416c-1.498-0.992-3.108-1.411-4.46-1.514c-2.743-0.188-4.35,0.669-4.368,0.555
				c-0.012-0.022,0.364-0.241,1.109-0.481c0.741-0.238,1.871-0.479,3.28-0.414c1.398,0.063,3.097,0.462,4.68,1.48
				c1.578,1,3.035,2.591,3.854,4.61l-0.46,0.037l0.014-0.058c0.501-2.131,1.761-3.914,3.231-5.081
				c1.474-1.188,3.153-1.729,4.552-1.882c1.411-0.158,2.559,0.031,3.313,0.241C84.239,170.158,84.623,170.368,84.613,170.391z"/>
		</g>
	</g>
	<g>
		<g>
			<path fill="#E0E0E0" d="M343.298,149.739c0.028,0.029-0.377,0.448-1.068,1.234c-0.692,0.785-1.638,1.976-2.624,3.563
				c-1.982,3.132-3.967,8.117-3.898,13.834c0,0.061-0.001,0.119-0.001,0.174l-0.48,0.04c-0.828-5.624-3.779-10.104-6.369-12.694
				c-2.604-2.646-4.722-3.674-4.651-3.771c0.009-0.014,0.141,0.046,0.383,0.175c0.237,0.137,0.607,0.31,1.042,0.602
				c0.891,0.547,2.121,1.447,3.469,2.755c1.35,1.303,2.777,3.057,3.992,5.231c1.218,2.169,2.182,4.781,2.613,7.635l-0.479,0.04
				c0-0.057,0-0.117,0.001-0.179c-0.07-5.835,2.01-10.897,4.093-14.022c1.037-1.584,2.034-2.754,2.774-3.506
				c0.356-0.39,0.675-0.651,0.876-0.843C343.173,149.818,343.287,149.727,343.298,149.739z"/>
		</g>
	</g>
	<g>
		<path fill="#EBEBEB" d="M378.154,389.367c-15.751,3.737-27.773,19.438-27.274,35.618c-10.086-11.12-28.543-13.39-41.022-5.044
			c-12.479,8.347-17.43,26.271-11.003,39.84c-14.913-11.64-39.164-8.412-50.514,6.722c-2.583-9.527-9.91-17.642-19.125-21.181
			c-9.215-3.54-20.09-2.416-28.387,2.935c-2.688-16.875-16.307-31.477-32.953-35.33c-16.646-3.855-35.297,3.271-45.128,17.248
			c-8.322-8.105-20.503-12.063-32-10.394c-11.497,1.67-22.05,8.929-27.723,19.065l10.112,3.264
			c18.443,3.371,34.667,16.987,41.188,34.565c9.278-10.158,23.652-15.411,37.297-13.63c13.644,1.781,26.186,10.551,32.545,22.752
			l77.849-0.04c19.383-0.161,34.177,0.886,52.094,0c7.085-24.927,39.668-47.084,64.163-38.63
			c4.913-18.885,20.988-34.386,40.013-38.679C411.296,394.068,393.729,385.67,378.154,389.367z"/>
		<path fill="#EBEBEB" d="M418.907,408.306c-0.209,0.044-0.415,0.097-0.623,0.144c0.078,0.162,0.163,0.32,0.239,0.483
			L418.907,408.306z"/>
	</g>
	<g>
		<g>
			<path fill="#EBEBEB" d="M217.698,362.071c0.598-4.333-5.519-7.897-10.112-8.268c-2.191-0.178-4.467,0.157-6.543-0.565
				c-4.498-1.567-6.294-7.378-10.684-9.229c-3.28-1.384-7.058-0.15-10.238,1.449c-3.182,1.602-6.324,3.615-9.878,3.843
				c-3.092,0.198-6.448-0.947-9.152,0.563c-2.015,1.125-3.071,3.447-4.928,4.817c-1.817,1.341-4.188,1.624-6.442,1.747
				c-2.254,0.121-4.589,0.146-6.642,1.085c-2.054,0.939-3.751,3.11-3.326,5.328L217.698,362.071z"/>
		</g>
	</g>
	<g>
		<g>
			<path fill="#EBEBEB" d="M436.074,118.347c0.709-5.152-6.563-9.393-12.026-9.832c-2.606-0.21-5.313,0.188-7.781-0.672
				c-5.349-1.864-7.485-8.774-12.705-10.977c-3.901-1.646-8.394-0.181-12.176,1.723c-3.783,1.904-7.521,4.3-11.747,4.57
				c-3.676,0.235-7.668-1.128-10.884,0.668c-2.396,1.338-3.652,4.101-5.861,5.729c-2.161,1.594-4.979,1.931-7.661,2.077
				c-2.682,0.146-5.457,0.173-7.897,1.29c-2.441,1.118-4.463,3.699-3.955,6.337L436.074,118.347z"/>
		</g>
	</g>
	<g>
		<g>
			<path fill="#EBEBEB" d="M151.333,91.438c0.748-5.433-6.918-9.9-12.679-10.364c-2.746-0.222-5.601,0.198-8.202-0.708
				c-5.639-1.965-7.892-9.249-13.393-11.57c-4.113-1.734-8.848-0.189-12.835,1.816s-7.928,4.533-12.383,4.817
				c-3.875,0.248-8.083-1.189-11.473,0.703c-2.526,1.411-3.851,4.321-6.179,6.039c-2.277,1.681-5.25,2.036-8.076,2.189
				c-2.826,0.154-5.753,0.182-8.325,1.361c-2.574,1.178-4.703,3.899-4.169,6.68L151.333,91.438z"/>
		</g>
	</g>
	<g>
		<g>
			<path fill="#F5F5F5" d="M454.463,298.198c1.008-7.32-9.324-13.343-17.087-13.968c-3.702-0.299-7.549,0.267-11.057-0.955
				c-7.599-2.648-10.634-12.466-18.049-15.594c-5.544-2.338-11.925-0.256-17.299,2.447c-5.374,2.705-10.687,6.108-16.689,6.493
				c-5.222,0.334-10.894-1.603-15.463,0.948c-3.404,1.901-5.188,5.824-8.326,8.14c-3.069,2.265-7.074,2.743-10.885,2.951
				c-3.81,0.207-7.753,0.245-11.222,1.834c-3.469,1.588-6.338,5.256-5.618,9.002L454.463,298.198z"/>
		</g>
	</g>
	<g>
		<g>
			<path fill="#EBEBEB" d="M163.495,246.182c0.913-6.627-8.44-12.079-15.47-12.646c-3.352-0.27-6.833,0.242-10.008-0.864
				c-6.879-2.397-9.627-11.285-16.34-14.116c-5.019-2.117-10.796-0.232-15.662,2.216c-4.865,2.448-9.673,5.53-15.107,5.878
				c-4.729,0.302-9.862-1.451-13.999,0.858c-3.083,1.722-4.697,5.272-7.538,7.368c-2.78,2.051-6.405,2.484-9.854,2.672
				c-3.449,0.188-7.019,0.223-10.159,1.66c-3.14,1.438-5.737,4.758-5.086,8.15L163.495,246.182z"/>
		</g>
	</g>
</g>
<g id="Background_Simple" display="none">
	<path display="inline" fill="#F5F5F5" d="M449.454,130.377l-1.857-4.308C431.933,89.758,398,64.463,358.924,61.526
		c-5.023-0.377-10.075-0.394-15.112-0.026c-36.267,2.642-70.614,25.013-88.06,57.354c-10.26,19.021-15.56,41.827-31.949,55.777
		c-21.331,18.157-52.744,14.452-80.164,9.765c-27.42-4.688-58.865-8.314-80.118,9.937C50.21,205.763,43.98,223.784,42.48,241.361
		c-3.969,46.538,22.478,92.321,60.561,118.546c38.083,26.224,86.027,34.766,132.088,31.964
		c64.524-3.924,129.046-30.37,172.387-79.048S470.106,192.293,449.454,130.377z"/>
	<circle display="inline" fill="#F5F5F5" cx="81.108" cy="132.189" r="21.583"/>
	<circle display="inline" fill="#F5F5F5" cx="408.19" cy="358.32" r="15.956"/>
</g>
<g id="Clouds">
	<g>
		<path fill="#263238" d="M472.987,427.269c0,0-0.495-0.541-1.428-1.609c-0.468-0.532-1.026-1.216-1.79-1.936
			c-0.372-0.369-0.772-0.77-1.202-1.195c-0.418-0.438-0.896-0.875-1.425-1.313c-0.521-0.449-1.071-0.926-1.651-1.427
			c-0.574-0.509-1.248-0.956-1.915-1.474c-1.322-1.057-2.903-2.016-4.579-3.096c-3.43-2.033-7.604-4.016-12.527-5.509
			c-4.913-1.493-10.599-2.49-16.81-2.335c-0.774,0.023-1.559,0.048-2.35,0.072c-0.788,0.078-1.583,0.157-2.387,0.237
			c-0.401,0.041-0.806,0.083-1.21,0.124c-0.401,0.069-0.806,0.141-1.21,0.211c-0.811,0.144-1.627,0.288-2.452,0.435
			c-3.262,0.769-6.602,1.771-9.881,3.242c-3.262,1.496-6.529,3.281-9.624,5.525c-3.084,2.251-6.046,4.857-8.775,7.834
			c-5.394,5.986-9.825,13.503-12.103,22.095l-0.061,0.228l-0.222-0.076c-5.806-2.005-12.325-2.283-18.713-1.105
			c-6.404,1.17-12.708,3.703-18.573,7.225c-5.863,3.529-11.329,8.057-15.987,13.478c-4.636,5.414-8.511,11.778-10.575,18.897
			l-0.051,0.175l-0.18,0.009c-9.86,0.499-20.038,0.394-30.425,0.193c-5.194-0.093-10.443-0.187-15.74-0.198
			c-5.299,0.006-10.645,0.012-16.027,0.018c-23.464,0.011-46.207,0.02-67.763,0.026H185.2l-0.071-0.135
			c-3.47-6.618-8.685-12.099-14.689-16.008c-6.009-3.92-12.847-6.286-19.679-6.824c-6.837-0.549-13.599,0.648-19.617,3.093
			c-6.026,2.443-11.333,6.144-15.478,10.645l-0.235,0.257l-0.122-0.325c-2.979-7.941-7.765-14.715-13.288-20.055
			c-2.792-2.646-5.765-4.944-8.821-6.915c-3.062-1.972-6.258-3.504-9.423-4.784c-3.177-1.271-6.392-2.092-9.512-2.732
			c-0.789-0.117-1.57-0.233-2.343-0.349c-0.387-0.057-0.773-0.111-1.156-0.167c-0.386-0.03-0.771-0.062-1.152-0.093
			c-0.766-0.061-1.523-0.119-2.273-0.18c-0.752-0.01-1.498-0.02-2.235-0.028c-5.905-0.054-11.293,0.925-15.965,2.318
			c-4.681,1.397-8.66,3.231-11.953,5.093c-1.608,0.994-3.125,1.873-4.406,2.838c-1.332,0.896-2.449,1.827-3.458,2.649
			c-1.039,0.79-1.823,1.638-2.57,2.29c-0.747,0.656-1.302,1.28-1.767,1.766c-0.925,0.975-1.413,1.465-1.413,1.465
			s0.455-0.52,1.366-1.51c0.457-0.493,1.005-1.126,1.746-1.79c0.741-0.661,1.521-1.519,2.556-2.317
			c1.006-0.832,2.119-1.775,3.448-2.682c1.28-0.977,2.795-1.865,4.405-2.872c3.294-1.885,7.28-3.741,11.976-5.164
			c4.688-1.418,10.098-2.418,16.036-2.381c0.742,0.007,1.491,0.016,2.248,0.022c0.755,0.058,1.518,0.115,2.287,0.175
			c0.385,0.029,0.772,0.06,1.161,0.089c0.386,0.055,0.773,0.11,1.164,0.165c0.779,0.114,1.565,0.229,2.359,0.345
			c3.142,0.639,6.379,1.455,9.58,2.729c3.188,1.281,6.408,2.816,9.493,4.796c3.082,1.976,6.079,4.284,8.896,6.945
			c5.57,5.364,10.403,12.181,13.419,20.186l-0.357-0.07c4.183-4.556,9.537-8.3,15.623-10.773c6.076-2.476,12.906-3.694,19.824-3.146
			c6.914,0.539,13.831,2.928,19.908,6.886c6.074,3.948,11.351,9.484,14.868,16.186l-0.224-0.136
			c21.556-0.015,44.299-0.028,67.761-0.044c5.385-0.006,10.731-0.013,16.03-0.018c5.303,0.014,10.556,0.107,15.749,0.201
			c10.388,0.202,20.548,0.313,30.39-0.182l-0.229,0.184c2.095-7.209,6.012-13.626,10.688-19.081
			c4.699-5.46,10.206-10.014,16.115-13.564c5.912-3.541,12.27-6.09,18.738-7.266c6.451-1.183,13.053-0.896,18.936,1.146
			l-0.279,0.149c2.308-8.666,6.786-16.231,12.229-22.253c2.753-2.99,5.74-5.611,8.851-7.872c3.119-2.253,6.413-4.044,9.699-5.543
			c3.307-1.474,6.67-2.476,9.954-3.241c0.831-0.145,1.654-0.288,2.471-0.431c0.407-0.07,0.813-0.14,1.219-0.209
			c0.408-0.041,0.813-0.082,1.218-0.122c0.809-0.078,1.609-0.156,2.401-0.232c0.796-0.021,1.584-0.045,2.363-0.066
			c6.248-0.14,11.958,0.882,16.888,2.399c4.939,1.519,9.123,3.524,12.555,5.582c1.677,1.095,3.257,2.063,4.577,3.132
			c0.667,0.521,1.34,0.977,1.912,1.489c0.578,0.508,1.127,0.987,1.645,1.441c0.527,0.444,1.003,0.885,1.419,1.329
			c0.426,0.432,0.824,0.835,1.192,1.209c0.758,0.729,1.309,1.42,1.77,1.961C472.527,426.701,472.987,427.269,472.987,427.269z"/>
	</g>
</g>
<g id="Stars">
	<g>
		<g>
			<g>
				<path fill="#F6AF18" d="M247.976,50.833l5.229,10.592c0.372,0.755,1.092,1.277,1.925,1.398l11.688,1.698
					c2.098,0.305,2.935,2.881,1.416,4.359l-8.458,8.245c-0.603,0.587-0.878,1.434-0.734,2.263l1.997,11.643
					c0.356,2.088-1.834,3.68-3.709,2.694l-10.456-5.497c-0.745-0.393-1.635-0.393-2.379,0l-10.455,5.497
					c-1.875,0.985-4.067-0.606-3.708-2.694l1.997-11.643c0.142-0.829-0.134-1.676-0.735-2.263l-8.459-8.245
					c-1.517-1.479-0.68-4.055,1.417-4.359l11.69-1.698c0.833-0.121,1.552-0.644,1.924-1.398l5.228-10.592
					C244.33,48.934,247.038,48.934,247.976,50.833z"/>
				<g>
					
						<ellipse transform="matrix(0.689 -0.7247 0.7247 0.689 34.5603 168.3083)" fill="#F6AF18" cx="213.412" cy="43.881" rx="0.26" ry="20.217"/>
				</g>
				<g>
					
						<ellipse transform="matrix(0.06 -0.9982 0.9982 0.06 125.9232 260.8731)" fill="#F6AF18" cx="201.48" cy="63.574" rx="0.26" ry="12.729"/>
				</g>
				<g>
					
						<ellipse transform="matrix(0.9138 -0.4061 0.4061 0.9138 4.7424 97.6121)" fill="#F6AF18" cx="232.356" cy="37.633" rx="0.26" ry="8.455"/>
				</g>
				<g>
					<ellipse fill="#F6AF18" cx="244.65" cy="26.964" rx="0.262" ry="15.563"/>
				</g>
				<g>
					
						<ellipse transform="matrix(-0.9029 -0.4299 0.4299 -0.9029 476.2495 182.8986)" fill="#F6AF18" cx="258.787" cy="37.647" rx="0.261" ry="8.235"/>
				</g>
				<g>
					
						<ellipse transform="matrix(-0.5723 -0.82 0.82 -0.5723 391.5828 298.7774)" fill="#F6AF18" cx="273.703" cy="47.277" rx="0.26" ry="20.953"/>
				</g>
				<g>
					
						<ellipse transform="matrix(-0.3614 -0.9324 0.9324 -0.3614 328.8163 346.6347)" fill="#F6AF18" cx="283.117" cy="60.711" rx="0.261" ry="9.144"/>
				</g>
				<g>
					
						<ellipse transform="matrix(-0.3258 -0.9455 0.9455 -0.3258 187.3558 306.3478)" fill="#F6AF18" cx="202.912" cy="86.368" rx="0.261" ry="23.516"/>
				</g>
				<g>
					
						<ellipse transform="matrix(0.271 -0.9626 0.9626 0.271 125.9187 334.637)" fill="#F6AF18" cx="283.892" cy="84.185" rx="0.261" ry="20.177"/>
				</g>
			</g>
			<g>
				
					<ellipse transform="matrix(0.6565 0.7543 -0.7543 0.6565 153.8745 -133.0827)" fill="#F6AF18" cx="223.063" cy="102.414" rx="0.26" ry="8.062"/>
			</g>
			<g>
				<ellipse fill="#F6AF18" cx="245.587" cy="113.114" rx="0.26" ry="19.082"/>
			</g>
			<g>
				
					<ellipse transform="matrix(0.6861 -0.7275 0.7275 0.6861 8.629 228.4028)" fill="#F6AF18" cx="269.006" cy="104.201" rx="0.26" ry="8.199"/>
			</g>
		</g>
		<path fill="#F6AF18" d="M296.391,73.802l0.089,1.72c0.007,0.123,0.072,0.233,0.177,0.298l1.468,0.902
			c0.264,0.161,0.228,0.555-0.062,0.666l-1.607,0.615c-0.115,0.044-0.2,0.143-0.229,0.262l-0.404,1.674
			c-0.071,0.3-0.458,0.387-0.651,0.146l-1.083-1.339c-0.077-0.096-0.196-0.146-0.318-0.138l-1.717,0.133
			c-0.309,0.024-0.51-0.316-0.342-0.575l0.938-1.443c0.067-0.104,0.079-0.232,0.032-0.346l-0.657-1.592
			c-0.117-0.286,0.145-0.582,0.441-0.502l1.663,0.447c0.119,0.032,0.245,0.003,0.339-0.076l1.312-1.117
			C296.012,73.336,296.375,73.493,296.391,73.802z"/>
		<path fill="#F6AF18" d="M307.434,55.667l0.783,0.82c0.056,0.059,0.137,0.086,0.217,0.073l1.119-0.181
			c0.201-0.032,0.352,0.181,0.256,0.358l-0.538,0.999c-0.039,0.071-0.04,0.157-0.003,0.229l0.518,1.011
			c0.094,0.181-0.063,0.39-0.263,0.354l-1.115-0.204c-0.08-0.015-0.161,0.012-0.219,0.068l-0.8,0.804
			c-0.145,0.145-0.391,0.062-0.417-0.141l-0.151-1.124c-0.012-0.08-0.061-0.149-0.133-0.187l-1.012-0.513
			c-0.183-0.092-0.18-0.352,0.004-0.439l1.021-0.492c0.073-0.035,0.124-0.104,0.138-0.185l0.175-1.121
			C307.045,55.598,307.293,55.52,307.434,55.667z"/>
		<path fill="#F6AF18" d="M180.605,42.061l0.783,0.82c0.056,0.059,0.137,0.085,0.217,0.073l1.12-0.18
			c0.201-0.032,0.353,0.18,0.255,0.359l-0.538,0.998c-0.039,0.071-0.04,0.156-0.002,0.229l0.518,1.01
			c0.093,0.182-0.063,0.391-0.263,0.354l-1.115-0.203c-0.079-0.016-0.161,0.011-0.219,0.067l-0.8,0.805
			c-0.143,0.145-0.39,0.062-0.417-0.141l-0.15-1.125c-0.012-0.08-0.062-0.148-0.133-0.186l-1.012-0.512
			c-0.182-0.093-0.179-0.354,0.004-0.44l1.022-0.492c0.072-0.035,0.124-0.104,0.136-0.183l0.175-1.121
			C180.216,41.992,180.464,41.914,180.605,42.061z"/>
	</g>
</g>
<g id="Birds">
	<g>
		<g>
			<path fill="#263238" d="M81.108,283.828c-0.015,0.039-0.42-0.108-1.174-0.262c-0.751-0.15-1.872-0.281-3.226-0.085
				c-1.345,0.189-2.931,0.739-4.315,1.889c-1.384,1.129-2.566,2.831-3.04,4.844l-0.014,0.055l-0.186,0.718l-0.275-0.681
				c-0.775-1.915-2.152-3.441-3.646-4.416c-1.498-0.992-3.109-1.411-4.46-1.516c-2.745-0.187-4.35,0.67-4.369,0.557
				c-0.011-0.023,0.365-0.241,1.11-0.481c0.741-0.239,1.871-0.479,3.28-0.415c1.398,0.063,3.097,0.463,4.68,1.481
				c1.578,1,3.035,2.591,3.854,4.608l-0.46,0.037l0.014-0.057c0.501-2.132,1.761-3.914,3.23-5.081
				c1.475-1.189,3.153-1.729,4.553-1.882c1.411-0.158,2.559,0.03,3.313,0.24C80.734,283.595,81.118,283.804,81.108,283.828z"/>
		</g>
	</g>
	<g>
		<g>
			<path fill="#263238" d="M129.512,279.991c0.041,0.042-0.534,0.635-1.514,1.749c-0.98,1.112-2.319,2.799-3.717,5.046
				c-2.809,4.438-5.619,11.499-5.522,19.598c-0.001,0.085-0.001,0.17-0.002,0.247l-0.682,0.057
				c-1.174-7.966-5.354-14.313-9.022-17.983c-3.69-3.749-6.689-5.204-6.589-5.343c0.011-0.021,0.197,0.065,0.541,0.247
				c0.337,0.191,0.861,0.438,1.477,0.851c1.263,0.775,3.004,2.053,4.913,3.904c1.911,1.846,3.935,4.329,5.655,7.412
				c1.725,3.072,3.091,6.771,3.703,10.813l-0.682,0.057c0.001-0.079,0.001-0.165,0.003-0.251c-0.1-8.268,2.847-15.438,5.799-19.865
				c1.468-2.244,2.88-3.902,3.929-4.968c0.506-0.55,0.956-0.923,1.241-1.193C129.334,280.103,129.496,279.974,129.512,279.991z"/>
		</g>
	</g>
	<g>
		<g>
			<g>
				<path fill="#263238" d="M376.875,220.563c-0.018,0.047-0.837-0.289-2.384-0.632c-1.54-0.338-3.851-0.638-6.652-0.257
					c-2.782,0.372-6.079,1.491-8.966,3.867c-2.879,2.332-5.343,5.861-6.326,10.047c-0.011,0.038-0.021,0.076-0.029,0.111
					l-0.184,0.718l-0.276-0.681c-1.61-3.978-4.472-7.139-7.576-9.148c-3.112-2.046-6.459-2.894-9.252-3.085
					c-2.811-0.195-5.091,0.208-6.61,0.605c-1.525,0.403-2.333,0.757-2.351,0.711c-0.007-0.015,0.191-0.11,0.575-0.277
					c0.383-0.169,0.961-0.39,1.725-0.614c1.52-0.457,3.821-0.921,6.684-0.766c2.841,0.15,6.273,0.979,9.473,3.052
					c3.188,2.035,6.13,5.261,7.783,9.342l-0.46,0.037c0.009-0.036,0.019-0.076,0.028-0.115c1.013-4.306,3.554-7.914,6.519-10.284
					c2.974-2.416,6.365-3.525,9.201-3.859c2.858-0.344,5.197,0.015,6.739,0.412c0.775,0.195,1.365,0.397,1.754,0.557
					C376.68,220.458,376.882,220.547,376.875,220.563z"/>
			</g>
		</g>
		<g>
			<g>
				<path fill="#263238" d="M443.393,184.062c-0.015,0.04-0.471-0.131-1.321-0.307c-0.846-0.173-2.109-0.323-3.64-0.105
					c-1.519,0.213-3.312,0.831-4.877,2.128c-1.564,1.274-2.902,3.197-3.438,5.473l-0.016,0.062l-0.186,0.718l-0.274-0.681
					c-0.877-2.164-2.434-3.889-4.121-4.988c-1.692-1.12-3.514-1.59-5.039-1.704c-1.534-0.117-2.784,0.091-3.62,0.297
					c-0.839,0.208-1.288,0.39-1.304,0.351c-0.007-0.016,0.1-0.074,0.309-0.174c0.208-0.1,0.525-0.228,0.945-0.357
					c0.835-0.266,2.105-0.533,3.691-0.457c1.572,0.073,3.48,0.524,5.26,1.671c1.771,1.125,3.408,2.914,4.327,5.181l-0.46,0.037
					l0.017-0.063c0.563-2.395,1.978-4.397,3.628-5.709c1.655-1.338,3.541-1.946,5.113-2.121c1.586-0.182,2.878,0.028,3.728,0.262
					c0.428,0.114,0.75,0.232,0.962,0.326C443.29,183.991,443.399,184.047,443.393,184.062z"/>
			</g>
		</g>
		<g>
			<g>
				<path fill="#263238" d="M399.903,169.123c0.029,0.031-0.455,0.522-1.277,1.45c-0.825,0.927-1.949,2.336-3.122,4.215
					c-2.357,3.709-4.718,9.621-4.637,16.404c-0.001,0.071-0.001,0.141-0.002,0.207l-0.479,0.04c-0.501-3.31-1.605-6.346-2.999-8.884
					c-1.392-2.545-3.023-4.613-4.566-6.169c-1.541-1.562-2.947-2.662-3.959-3.357c-1.011-0.698-1.596-1.051-1.573-1.088
					c0.009-0.014,0.161,0.06,0.447,0.214c0.28,0.164,0.718,0.371,1.229,0.718c1.052,0.652,2.504,1.723,4.096,3.272
					c1.594,1.544,3.28,3.62,4.715,6.194c1.438,2.567,2.577,5.655,3.089,9.029l-0.48,0.04c0.001-0.065,0.001-0.138,0.002-0.21
					c-0.083-6.901,2.372-12.89,4.83-16.593c1.224-1.877,2.398-3.266,3.271-4.159c0.421-0.462,0.795-0.775,1.03-1.003
					C399.758,169.222,399.891,169.111,399.903,169.123z"/>
			</g>
		</g>
	</g>
</g>
<g id="Character">
	<g>
		<g>
			<path fill="#455A64" d="M204.306,197.329c21.764,0,43.529,0,65.293,0c6.147,0,12.295,0,18.441,0c3.218,0,3.223-5,0-5
				c-21.765,0-43.528,0-65.293,0c-6.147,0-12.294,0-18.441,0C201.089,192.329,201.083,197.329,204.306,197.329L204.306,197.329z"/>
		</g>
		<g>
			<rect x="201.203" y="101.747" fill="#455A64" width="6" height="383.979"/>
		</g>
		<g>
			<path fill="#263238" d="M206.89,485.726c-0.144,0-0.261-85.907-0.261-191.855c0-105.983,0.117-191.873,0.261-191.873
				c0.145,0,0.26,85.89,0.26,191.873C207.15,399.819,207.033,485.726,206.89,485.726z"/>
		</g>
		<g>
			<path fill="#455A64" d="M204.306,158.476c21.764,0,43.529,0,65.293,0c6.147,0,12.295,0,18.441,0c3.218,0,3.223-5,0-5
				c-21.765,0-43.528,0-65.293,0c-6.147,0-12.294,0-18.441,0C201.089,153.476,201.083,158.476,204.306,158.476L204.306,158.476z"/>
		</g>
		<g>
			<rect x="284.938" y="102.534" fill="#455A64" width="6" height="383.192"/>
		</g>
		<g>
			<path fill="#263238" d="M285.087,437.454c-0.145,0-0.261-74.833-0.261-167.123c0-92.32,0.116-167.138,0.261-167.138
				c0.144,0,0.26,74.817,0.26,167.138C285.347,362.621,285.231,437.454,285.087,437.454z"/>
		</g>
		<g>
			<path fill="#455A64" d="M204.203,453.26c21.765,0,43.528,0,65.293,0c6.146,0,12.295,0,18.441,0c3.217,0,3.224-5,0-5
				c-21.765,0-43.528,0-65.294,0c-6.146,0-12.294,0-18.44,0C200.985,448.26,200.98,453.26,204.203,453.26L204.203,453.26z"/>
		</g>
		<g>
			<path fill="#455A64" d="M205.947,375.749c20.415,0,40.831,0,61.247,0c5.81,0,11.618,0,17.429,0c3.217,0,3.223-5,0-5
				c-20.416,0-40.831,0-61.247,0c-5.811,0-11.619,0-17.429,0C202.73,370.749,202.725,375.749,205.947,375.749L205.947,375.749z"/>
		</g>
		<g>
			<path fill="#455A64" d="M204.203,321.579c21.765,0,43.528,0,65.293,0c6.146,0,12.295,0,18.441,0c3.217,0,3.224-5,0-5
				c-21.765,0-43.528,0-65.294,0c-6.146,0-12.294,0-18.44,0C200.985,316.579,200.98,321.579,204.203,321.579L204.203,321.579z"/>
		</g>
		<g>
			<path fill="#455A64" d="M204.203,278.847c21.765,0,43.528,0,65.293,0c6.146,0,12.295,0,18.441,0c3.217,0,3.224-5,0-5
				c-21.765,0-43.528,0-65.294,0c-6.146,0-12.294,0-18.44,0C200.985,273.847,200.98,278.847,204.203,278.847L204.203,278.847z"/>
		</g>
		<g>
			<path fill="#455A64" d="M204.203,237.13c21.765,0,43.528,0,65.293,0c6.146,0,12.295,0,18.441,0c3.217,0,3.224-5,0-5
				c-21.765,0-43.528,0-65.294,0c-6.146,0-12.294,0-18.44,0C200.985,232.13,200.98,237.13,204.203,237.13L204.203,237.13z"/>
		</g>
		<g>
			<path fill="#455A64" d="M205.032,415.693c20.644,0,41.286,0,61.931,0c5.887,0,11.771,0,17.659,0c3.217,0,3.223-5,0-5
				c-20.645,0-41.288,0-61.932,0c-5.886,0-11.771,0-17.658,0C201.814,410.693,201.809,415.693,205.032,415.693L205.032,415.693z"/>
		</g>
	</g>
	<g>
		<path fill="#FFBE9D" d="M273.134,163.698l-5.082-11.313c0,0,0.265-6.044-0.593-6.556c-1.182-0.703-1.467-0.12-1.797,1.898
			l-0.476,2.969c0,0-1.938-4.224-3.75-4.399c-1.227-0.117-1.581,2.023-1.581,2.023s-2.042-1.914-3.5-1.457
			c-1.367,0.429-0.986,2.446-0.986,2.446s-1.714-1.024-2.458,0.787c-0.854,2.073,2.876,5.21,3.444,6.597
			c1.193,2.905-1.333,2.999-1.333,2.999s-6.498-0.833-6.164,0.833c0.333,1.666,2.499,1.666,4.165,1.833
			c1.391,0.139,6.602,1.436,8.295,1.863c0.354,0.089,0.69,0.236,0.996,0.437l3.88,3.983L273.134,163.698z"/>
		<g>
			<g>
				<g>
					<g>
						<g>
							<polygon fill="#F6AF18" points="270.497,423.465 270.276,452.5 254.609,452.694 254.77,423.602 							"/>
						</g>
					</g>
				</g>
				<g>
					<g>
						<g>
							<g>
								<ellipse fill="#263238" cx="262.836" cy="437.317" rx="0.237" ry="14.196"/>
							</g>
						</g>
					</g>
				</g>
				<g>
					<g>
						<g>
							<g>
								<path fill="#263238" d="M254.661,443.396c-0.023-0.018,0.112-0.248,0.407-0.63c0.295-0.381,0.764-0.904,1.414-1.478
									c0.652-0.567,1.497-1.185,2.551-1.668c1.042-0.49,2.311-0.831,3.659-0.803c2.709,0.036,4.973,1.391,6.078,2.727
									c0.574,0.658,0.927,1.276,1.126,1.717c0.196,0.442,0.269,0.701,0.241,0.712c-0.086,0.047-0.451-0.983-1.613-2.201
									c-1.125-1.222-3.271-2.441-5.843-2.479c-2.563-0.046-4.688,1.225-5.985,2.254
									C255.374,442.601,254.726,443.452,254.661,443.396z"/>
							</g>
						</g>
					</g>
				</g>
				<g>
					<g>
						<g>
							<polygon opacity="0.3" enable-background="new    " points="254.616,434.108 254.599,437.307 270.497,437.307 
								270.497,434.108 							"/>
						</g>
					</g>
				</g>
			</g>
			<polygon fill="#E0E0E0" points="254.609,452.694 254.625,449.664 270.297,449.668 270.276,452.5 			"/>
		</g>
		<g>
			<g>
				<g>
					<g>
						<g>
							<polygon fill="#F6AF18" points="237.634,348.106 237.422,375.97 222.387,376.156 222.542,348.239 							"/>
						</g>
					</g>
				</g>
				<g>
					<g>
						<g>
							<g>
								<ellipse fill="#263238" cx="230.278" cy="361.393" rx="0.228" ry="13.623"/>
							</g>
						</g>
					</g>
				</g>
				<g>
					<g>
						<g>
							<g>
								<path fill="#263238" d="M222.437,367.234c-0.022-0.019,0.108-0.238,0.393-0.604c0.283-0.365,0.73-0.867,1.356-1.417
									c0.625-0.546,1.438-1.138,2.447-1.601c1-0.472,2.217-0.798,3.513-0.771c2.601,0.035,4.771,1.334,5.833,2.615
									c0.552,0.633,0.891,1.227,1.082,1.648c0.188,0.425,0.256,0.673,0.231,0.683c-0.083,0.045-0.434-0.943-1.548-2.112
									c-1.079-1.172-3.141-2.344-5.607-2.379c-2.459-0.043-4.5,1.177-5.744,2.163C223.121,366.47,222.5,367.287,222.437,367.234z"
									/>
							</g>
						</g>
					</g>
				</g>
				<g>
					<g>
						<g>
							<polygon opacity="0.3" enable-background="new    " points="222.394,358.32 222.377,361.39 237.634,361.39 237.634,358.32 
															"/>
						</g>
					</g>
				</g>
			</g>
			<polygon fill="#E0E0E0" points="222.387,376.156 222.403,373.249 237.443,373.25 237.422,375.97 			"/>
		</g>
		<g>
			<g>
				<g>
					<g>
						<g>
							<path fill="#263238" d="M240.499,161.325l0.397-0.102c1.201-2.17,3.641-3.524,6.114-3.651s4.936,0.889,6.792,2.532
								c1.289,1.141,2.307,2.563,3.602,3.699c1.294,1.135,3.019,1.987,4.701,1.634c0.206,0.628-0.966,1-0.894,1.657
								c0.035,0.313,0.355,0.519,0.666,0.58c0.452,0.092,0.92-0.023,1.382-0.01c0.462,0.016,0.984,0.229,1.1,0.676
								c0.058,0.22,0.002,0.451-0.055,0.67c-0.515,1.962-1.327,3.898-2.734,5.357c-1.405,1.459-3.487,2.372-5.479,1.998
								c-1.59-0.298-2.922-1.344-4.186-2.355c-2.397-1.923-4.796-3.846-7.193-5.769c-1.106-0.887-2.228-1.789-3.064-2.934
								S240.276,162.727,240.499,161.325z"/>
						</g>
					</g>
				</g>
				<g>
					<g>
						<g>
							<path fill="#263238" d="M242,161.725c-0.984-0.785-2.114-1.421-3.35-1.661c-1.234-0.239-2.584-0.048-3.604,0.688
								c-0.949,0.687-1.529,1.755-2.198,2.717c-0.669,0.961-1.556,1.899-2.714,2.068c-0.203,0.03-0.428,0.042-0.577,0.185
								c-0.264,0.25-0.073,0.737,0.258,0.888s0.715,0.071,1.07-0.01c-0.572,0.67-1.385,1.129-2.253,1.272
								c0.189,0.855,1.188,1.432,2.022,1.167c-0.334,1.361-0.671,2.738-0.663,4.14c0.008,1.4,0.396,2.851,1.349,3.878
								c1.048,1.132,2.751,1.766,3.209,3.239"/>
						</g>
					</g>
				</g>
				<g>
					<g>
						<g>
							<g>
								<g>
									<g>
										<g>
											<g>
												<g>
													<g>
														<g>
															<g>
																<path fill="#FFBE9D" d="M252.094,211.139l-18.722-0.241l2.09-15.962c0,0-1.279-0.274-1.365-7.218
																	c-0.085-6.945-0.404-18.744-0.404-18.744l0,0c8.028-3.455,17.295-2.289,24.22,3.048l1.027,0.792L252.094,211.139z"
																	/>
															</g>
														</g>
													</g>
												</g>
											</g>
										</g>
									</g>
								</g>
							</g>
						</g>
					</g>
					<g>
						<g>
							<g>
								<g>
									<g>
										<g>
											<g>
												<g>
													<g>
														<path fill="#FFBE9D" d="M256.767,181.355c0.118-0.051,4.767-1.411,4.614,3.337s-4.881,3.616-4.885,3.479
															C256.493,188.035,256.767,181.355,256.767,181.355z"/>
													</g>
												</g>
											</g>
										</g>
									</g>
								</g>
							</g>
						</g>
					</g>
					<g>
						<g>
							<g>
								<g>
									<g>
										<g>
											<g>
												<g>
													<g>
														<path fill="#FFBE9D" d="M234.499,180.364c-0.118-0.051-4.346-1.192-4.193,3.555c0.151,4.748,4.88,3.616,4.884,3.48
															C235.193,187.263,234.499,180.364,234.499,180.364z"/>
													</g>
												</g>
											</g>
										</g>
									</g>
								</g>
							</g>
						</g>
					</g>
					<g>
						<g>
							<g>
								<g>
									<g>
										<path fill="#263238" d="M258.304,180.826c-0.708,3.979-0.568,6.068-1.224,8.727c-1.038,4.204-3.123,7.429-6.906,9.528
											c-3.783,2.101-8.9,2.063-12.149-0.796c-2.255-1.983-3.854-4.226-4.188-7.212c-0.334-2.987-1.214-8.597-1.235-11.603
											c-0.038-5.421,0.144-10.281,0.144-10.281l15.466-2.803l8.801,5.239L258.304,180.826z"/>
									</g>
								</g>
							</g>
						</g>
					</g>
					<g>
						<g>
							<g>
								<g>
									<g>
										<g>
											<path fill="#263238" d="M242.352,201.478c-0.023,0.109,1.193,0.412,2.71,0.24c1.519-0.163,2.641-0.724,2.593-0.825
												c-0.044-0.119-1.188,0.239-2.641,0.394C243.564,201.453,242.369,201.352,242.352,201.478z"/>
										</g>
									</g>
								</g>
							</g>
						</g>
					</g>
					<g>
						<g>
							<g>
								<g>
									<g>
										<path fill="#263238" d="M257.557,187.589c0.453-4.076,0.747-8.739,1.384-13.037c0.238-1.613,0.813-3.938,0.669-5.563
											c-0.145-1.631-0.588-1.134-1.306-2.605c-0.899-1.845-4.336-3.073-6.347-3.479s-2.26-2.145-3.802-0.792
											c-1.124-1.686-3.336-2.563-5.309-2.107c-1.973,0.457-3.575,2.219-3.846,4.228c-1.101-1.048-2.916-1.245-4.214-0.455
											c-1.299,0.79-1.961,2.493-1.54,3.954c-1.11,0.185-2.105,0.958-2.56,1.99c-0.454,1.031-0.353,2.289,0.262,3.232
											c0.716,1.104,2.008,1.713,2.798,2.768c0.91,1.213,1.007,2.979,0.236,4.285"/>
									</g>
								</g>
							</g>
						</g>
						<g>
							<g>
								<g>
									<g>
										<g>
											<path fill="#455A64" d="M237.632,186.74c-0.104-0.024-0.319,1.946,0.534,4.173c0.832,2.235,2.295,3.57,2.355,3.483
												c0.104-0.086-1.158-1.496-1.952-3.637C237.752,188.629,237.767,186.735,237.632,186.74z"/>
										</g>
									</g>
								</g>
							</g>
						</g>
						<g>
							<g>
								<g>
									<g>
										<g>
											<path fill="#455A64" d="M235.554,183.277c-0.096-0.05-0.698,1.644-0.302,3.759c0.374,2.119,1.534,3.491,1.605,3.411
												c0.114-0.07-0.83-1.481-1.18-3.489C235.299,184.957,235.686,183.302,235.554,183.277z"/>
										</g>
									</g>
								</g>
							</g>
						</g>
					</g>
				</g>
				<g>
					<g>
						<g>
							<path fill="#263238" d="M255.03,166.864c-1.178-1.853-2.784-3.51-4.823-4.322c-2.039-0.812-4.545-0.645-6.213,0.782"/>
						</g>
					</g>
				</g>
				<g>
					<g>
						<g>
							<g>
								<path fill="#455A64" d="M254.64,177.373c-0.075-0.019,0.001-0.554,0.152-1.4c0.145-0.847,0.369-2.011,0.357-3.291
									c-0.012-1.277-0.331-2.407-0.709-3.147c-0.371-0.748-0.747-1.134-0.686-1.197c0.038-0.05,0.529,0.246,1.021,1.003
									c0.499,0.747,0.91,1.967,0.922,3.334c0.011,1.364-0.286,2.555-0.529,3.387C254.92,176.896,254.712,177.391,254.64,177.373z"
									/>
							</g>
						</g>
					</g>
				</g>
				<g>
					<g>
						<g>
							<g>
								<path fill="#455A64" d="M251.443,178.944c-0.138-0.076,0.246-1.016,0.616-2.194c0.378-1.177,0.606-2.166,0.762-2.147
									c0.146,0.013,0.158,1.078-0.236,2.314C252.193,178.154,251.57,179.018,251.443,178.944z"/>
							</g>
						</g>
					</g>
				</g>
				<g>
					<g>
						<g>
							<g>
								<path fill="#455A64" d="M236.59,177.724c-0.047,0.037-0.582-0.539-1.064-1.697c-0.482-1.142-0.841-2.917-0.462-4.818
									c0.38-1.901,1.394-3.402,2.278-4.271c0.89-0.883,1.604-1.209,1.634-1.156c0.052,0.074-0.571,0.51-1.348,1.42
									c-0.776,0.898-1.669,2.338-2.024,4.115c-0.354,1.777-0.083,3.449,0.289,4.577
									C236.259,177.033,236.667,177.677,236.59,177.724z"/>
							</g>
						</g>
					</g>
				</g>
				<g>
					<g>
						<g>
							<g>
								<path fill="#455A64" d="M253.496,160.06c-0.042,0.069-0.606-0.227-1.526-0.644c-0.916-0.403-2.229-0.934-3.729-0.916
									c-1.508-0.009-2.748,0.688-3.382,1.428c-0.654,0.731-0.775,1.378-0.865,1.353c-0.059,0.005-0.08-0.714,0.563-1.599
									c0.319-0.432,0.801-0.88,1.44-1.208c0.638-0.33,1.42-0.514,2.234-0.524c1.648-0.016,3.022,0.618,3.913,1.119
									C253.043,159.589,253.533,160.001,253.496,160.06z"/>
							</g>
						</g>
					</g>
				</g>
				<g>
					<g>
						<g>
							<g>
								<path fill="#455A64" d="M232.348,164.46c-0.06-0.021,0.052-0.553,0.551-1.256c0.487-0.696,1.426-1.536,2.712-1.912
									c1.288-0.373,2.53-0.167,3.314,0.16c0.798,0.326,1.176,0.715,1.137,0.766c-0.046,0.072-0.49-0.188-1.261-0.396
									c-0.761-0.213-1.886-0.334-3.037,0c-1.15,0.335-2.035,1.04-2.563,1.628C232.663,164.04,232.426,164.497,232.348,164.46z"/>
							</g>
						</g>
					</g>
				</g>
				<g>
					<g>
						<g>
							<g>
								<path fill="#455A64" d="M237.448,181.911c-0.018-0.065,0.766-0.273,2.014-0.834c1.241-0.559,2.951-1.521,4.577-3.1
									l0.896-0.872l-0.49,1.156c-0.293,0.691-0.527,1.45-0.67,2.256c-0.077,0.388-0.138,0.882,0.009,0.947
									c0.104,0.121,0.528-0.092,0.883-0.342c1.261-0.813,2.331-1.798,3.182-2.816l0.824-0.987l-0.376,1.225
									c-0.376,1.226-0.728,2.365-1.045,3.399l-0.356-0.217c2.172-2.057,2.924-3.89,3.03-3.82c0.035,0.017-0.119,0.477-0.533,1.237
									c-0.416,0.756-1.108,1.812-2.198,2.896l-0.581,0.578l0.225-0.795c0.293-1.041,0.616-2.19,0.963-3.423l0.448,0.238
									c-0.867,1.07-1.973,2.104-3.284,2.95c-0.192,0.119-0.369,0.248-0.614,0.355c-0.219,0.096-0.582,0.191-0.895-0.038
									c-0.304-0.239-0.316-0.589-0.307-0.819c0.019-0.252,0.059-0.445,0.096-0.664c0.156-0.847,0.415-1.642,0.735-2.361
									l0.407,0.284c-1.712,1.604-3.51,2.528-4.81,3.018C238.27,181.851,237.457,181.956,237.448,181.911z"/>
							</g>
						</g>
					</g>
				</g>
				<g>
					<g>
						<g>
							<path fill="#263238" d="M246.497,163.602c-0.3-0.575-0.875-0.976-1.496-1.155c-0.621-0.181-1.287-0.16-1.924-0.046
								c-1.562,0.278-3.016,1.121-4.034,2.337c-0.232,0.278-0.44,0.707-0.192,0.971c0.131,0.141,0.339,0.166,0.53,0.183
								c2.329,0.193,4.682,0.11,6.991-0.248"/>
						</g>
					</g>
				</g>
			</g>
		</g>
		<g>
			<path fill="#263238" d="M215.932,303.052c0.311,0.556,4.101,13.237,12.462,15.388c8.362,2.149,34.403,0.717,35.12,0
				s8.371-4.938,12.069-13.697c3.697-8.76-22.879-24.051-22.879-24.051L215.932,303.052z"/>
			<path fill="#263238" d="M279.985,306.478l0.236,7.071c0,1.09-0.135,6.568-0.252,7.65l-3.245,43.91
				c-0.324-0.128-2.214,27.033-2.379,36.52c-0.159,9.155-0.924,34.077-0.924,34.077h-21.367l-1.439-41.254l-0.899-44.665
				l-1.327-31.245L279.985,306.478z"/>
			<path fill="#263238" d="M215.932,296.06c0,0,0.465,0.701,0.357,10.418c-0.082,7.429,4.428,53.229,4.428,53.229l18.256-0.553
				l3.647-45.86L215.932,296.06z"/>
			<g>
				<path fill="#455A64" d="M250.074,319.088c0.003,0.035-0.544,0.111-1.533,0.217c-0.99,0.102-2.424,0.235-4.202,0.349
					c-3.543,0.243-8.534,0.313-13.893-0.809c-5.399-1.137-9.688-4.207-11.784-7.124c-1.075-1.445-1.694-2.782-2.003-3.734
					c-0.181-0.468-0.237-0.858-0.308-1.11c-0.058-0.257-0.08-0.393-0.063-0.396c0.132-0.063,0.471,2.229,2.664,5.017
					c2.119,2.789,6.326,5.729,11.601,6.84c5.292,1.107,10.226,1.1,13.766,0.951c1.704-0.074,3.119-0.137,4.206-0.184
					C249.521,319.06,250.072,319.052,250.074,319.088z"/>
			</g>
			<g>
				<path fill="#455A64" d="M271.714,318.207c0.014,0.067-0.876,0.323-2.342,0.619c-1.467,0.297-3.511,0.617-5.784,0.817
					c-2.275,0.198-4.344,0.239-5.839,0.203c-1.494-0.035-2.416-0.134-2.414-0.201c0.002-0.075,0.925-0.108,2.411-0.167
					s3.538-0.156,5.797-0.354c2.258-0.199,4.294-0.459,5.768-0.662C270.786,318.261,271.7,318.133,271.714,318.207z"/>
			</g>
			<g>
				<path fill="#455A64" d="M271.087,326.25c-0.01,0.067-1.19-0.027-3.085-0.312c-1.895-0.281-4.497-0.769-7.335-1.467
					c-2.838-0.701-5.369-1.481-7.177-2.112c-1.809-0.63-2.898-1.095-2.877-1.158c0.025-0.072,1.158,0.271,2.988,0.808
					c1.83,0.539,4.364,1.261,7.189,1.958c2.824,0.695,5.401,1.235,7.272,1.609S271.098,326.174,271.087,326.25z"/>
			</g>
		</g>
		<g>
			<path fill="#FFFFFF" d="M266.016,172.419c0.094-0.279-2.637-4.667-2.637-4.667s5.902-6.253,9.45-6.066l3.366,4.667
				L266.016,172.419z"/>
			<path fill="#F6AF18" d="M293.935,192.068c-1.287-4.023-17.458-27.348-17.458-27.348c-5.955,0-11.772,7.229-11.772,7.229
				l11.486,24.197l-12.077,11.125l13.639,16.11c0,0,8.604-10.77,11.188-14.676C294.687,200.017,295.223,196.091,293.935,192.068z"/>
			<path opacity="0.3" enable-background="new    " d="M215.408,301.76c0,0,1.354,8.985,8.871,11.648c7.519,2.663,24.895,0,24.895,0
				l2.02-6.549l2.156,7.731l26.872-3.444l-0.383-6.134l-28.48-11.83L215.408,301.76z"/>
			<path fill="#F6AF18" d="M274.017,271.812c-0.567-3.186-1.298-4.794-1.44-6.715c-0.43-5.727-0.396-19.47-0.005-21.229
				c0.514-2.305,5.181-20.485,5.181-20.485l-1.596-14.082l-19.844-3.344l-1.39-3.192c0,0-13.24-3.429-21.615,1.066l0,0l-1.449,3.421
				l-5.173,1.3c-0.776,0.311-4.831,1.436-7.898,2.271c-3.417,0.931-6.284,3.287-7.776,6.498c-0.462,0.994-0.932,2.162-1.393,3.531
				c-1.366,4.06-9.246,26.501-9.6,33.334c-0.413,7.988,6.674,8.272,10.974,7.256c4.179-0.989,9.068-10.699,9.068-10.699
				l2.717,18.935c0,0-0.571,4.001-1.891,7.601c-2.639,7.205-6.441,21.133-6.441,21.133c1.485,4.645,6.868,12.004,9.686,13.028
				c2.815,1.023,21.672,0.197,21.672,0.197l5.555-14.759l5.128,15.514l26.753-4.172L274.017,271.812z"/>
			<g>
				
					<ellipse transform="matrix(-0.5312 -0.8473 0.8473 -0.5312 141.1967 621.7789)" fill="#263238" cx="242.626" cy="271.824" rx="0.261" ry="10.305"/>
			</g>
			<g>
				
					<ellipse transform="matrix(-0.5334 -0.8459 0.8459 -0.5334 123.5358 628.1157)" fill="#263238" cx="235.02" cy="279.983" rx="0.261" ry="10.976"/>
			</g>
			<g>
				<path fill="#263238" d="M265.472,252.93c0.118,0.052-1.018,2.503-3.213,4.973c-2.181,2.482-4.475,3.911-4.54,3.801
					c-0.095-0.128,2.018-1.716,4.149-4.146C264.017,255.143,265.334,252.851,265.472,252.93z"/>
			</g>
			<g>
				<path fill="#263238" d="M266.011,255.457c0.06,0.031-0.26,0.81-0.9,2.006c-0.639,1.196-1.615,2.804-2.846,4.473
					c-1.231,1.668-2.479,3.076-3.435,4.039c-0.954,0.965-1.604,1.5-1.65,1.45c-0.111-0.11,2.236-2.489,4.666-5.8
					C264.291,258.329,265.872,255.382,266.011,255.457z"/>
			</g>
			<g>
				<path fill="#263238" d="M266.627,279.99c-0.071-0.025,0.226-1.036,0.692-2.67c0.469-1.633,1.09-3.896,1.676-6.416
					c0.585-2.523,1.022-4.827,1.322-6.499c0.301-1.672,0.479-2.711,0.555-2.701c0.066,0.008,0.019,1.063-0.19,2.756
					c-0.207,1.693-0.591,4.023-1.179,6.563c-0.59,2.537-1.272,4.797-1.832,6.408C267.112,279.042,266.692,280.012,266.627,279.99z"
					/>
			</g>
			<g>
				<path fill="#263238" d="M276.477,221.171c-0.138,0.079-1.915-2.999-4.606-6.432c-2.679-3.447-5.229-5.918-5.12-6.033
					c0.046-0.049,0.744,0.507,1.779,1.511c1.035,1.003,2.396,2.467,3.75,4.202c1.354,1.737,2.443,3.411,3.164,4.659
					C276.166,220.326,276.536,221.139,276.477,221.171z"/>
			</g>
			<g>
				<path fill="#263238" d="M280.769,214.055c-0.141,0.09-1.354-2.368-3.957-4.368c-2.571-2.037-5.252-2.616-5.199-2.775
					c0.013-0.06,0.693,0,1.742,0.336c1.046,0.333,2.444,0.992,3.777,2.029c1.33,1.041,2.309,2.236,2.887,3.17
					C280.601,213.382,280.825,214.028,280.769,214.055z"/>
			</g>
			<g>
				
					<ellipse transform="matrix(0.9898 -0.1427 0.1427 0.9898 -32.9419 33.8467)" fill="#263238" cx="219.443" cy="246.531" rx="0.26" ry="23.384"/>
			</g>
			<g>
				<path fill="#263238" d="M256.593,206.031c-0.008,0.08-1.403-0.019-3.656-0.104c-2.254-0.088-5.369-0.13-8.802,0.039
					c-3.435,0.174-6.531,0.526-8.764,0.838c-2.234,0.31-3.612,0.546-3.628,0.468c-0.008-0.036,0.328-0.136,0.943-0.288
					c0.614-0.155,1.512-0.342,2.626-0.544c2.229-0.406,5.339-0.819,8.796-0.993c3.456-0.17,6.592-0.069,8.85,0.113
					c1.13,0.09,2.041,0.188,2.668,0.28C256.252,205.929,256.597,205.995,256.593,206.031z"/>
			</g>
			<g opacity="0.3">
				<path d="M220.165,251.457c-1.065-8.001-2.522-16.002-3.588-24.003C213.688,235.333,215.284,244.618,220.165,251.457z"/>
			</g>
			<g opacity="0.3">
				<path d="M275.959,195.842c1.857-1.775,4.294-2.938,6.844-3.266c1.217-0.156,2.573-0.085,3.494,0.727
					c0.203,0.179,0.391,0.425,0.354,0.692c-0.036,0.271-0.295,0.464-0.562,0.519c-0.267,0.054-0.541-0.001-0.81-0.05
					c-3.066-0.559-6.398,0.349-9.313,1.464"/>
			</g>
			<g opacity="0.3">
				<path d="M232.867,207.371c2.532,0.775,5.248,0.622,7.887,0.396c4.669-0.401,9.32-1.009,13.935-1.819
					c-7.418-1.004-15.027-0.575-22.287,1.257"/>
			</g>
			<g opacity="0.3">
				<path d="M231.959,282.281c10.52-2.949,20.15-8.993,27.381-17.184C251.029,270.389,240.149,276.462,231.959,282.281z"/>
			</g>
			<g>
				<path fill="#263238" d="M282.479,194.652c-0.032,0.155-1.658-0.274-3.563,0.283c-1.917,0.519-3.08,1.732-3.188,1.618
					c-0.047-0.042,0.176-0.408,0.69-0.864c0.511-0.456,1.34-0.967,2.355-1.255c1.019-0.285,1.992-0.281,2.665-0.159
					C282.117,194.395,282.498,194.592,282.479,194.652z"/>
			</g>
		</g>
	</g>
</g>
<g id="Speech_Bubble">
	<g>
		<g>
			<g>
				<g>
					<g>
						<g>
							<g>
								<path fill="#FFFFFF" d="M184.493,183.08l-9.21,0.42c-2.898,3.441-6.723,6.139-11.244,7.627
									c-13.004,4.283-26.832-3.023-30.886-16.319c-4.054-13.297,3.202-27.548,16.205-31.832
									c13.004-4.283,26.832,3.023,30.886,16.32c1.691,5.553,1.406,11.27-0.439,16.358l0.008-0.012L184.493,183.08z"/>
								<g>
									<path fill="#263238" d="M184.493,183.08c0,0-0.12-0.171-0.33-0.493c-0.222-0.34-0.527-0.812-0.925-1.422
										c-0.812-1.259-1.991-3.088-3.521-5.461l0.192,0.004l-0.009,0.012c-0.035,0.053-0.106,0.065-0.159,0.03
										c-0.045-0.029-0.062-0.087-0.044-0.135c1.091-3.09,1.954-7.366,1.247-12.325c-0.327-2.472-1.118-5.074-2.374-7.632
										c-1.252-2.557-3.022-5.063-5.351-7.218c-2.319-2.154-5.19-3.95-8.445-5.084c-3.248-1.137-6.877-1.612-10.541-1.198
										c-3.654,0.445-7.317,1.749-10.561,3.878c-1.646,1.032-3.108,2.359-4.501,3.766c-1.301,1.489-2.568,3.058-3.521,4.844
										c-1.026,1.721-1.722,3.592-2.334,5.456c-0.49,1.898-0.893,3.813-0.962,5.738c-0.219,3.841,0.442,7.631,1.801,11.021
										c2.7,6.846,8.365,11.74,14.271,13.838c5.952,2.169,12.009,1.653,16.628-0.122c4.677-1.768,7.99-4.635,10.135-7.15
										c0.021-0.026,0.055-0.04,0.084-0.042c2.962-0.104,5.245-0.183,6.815-0.236c0.764-0.024,1.354-0.042,1.778-0.056
										C184.274,183.079,184.493,183.08,184.493,183.08s-0.183,0.02-0.568,0.043c-0.415,0.025-0.993,0.061-1.741,0.105
										c-1.589,0.09-3.897,0.22-6.896,0.39l0.084-0.042c-2.132,2.566-5.458,5.501-10.189,7.328
										c-4.671,1.833-10.833,2.395-16.903,0.208c-3.017-1.077-5.966-2.818-8.513-5.203c-2.544-2.378-4.698-5.395-6.072-8.863
										c-1.393-3.454-2.071-7.318-1.853-11.236c0.07-1.964,0.477-3.917,0.978-5.855c0.623-1.9,1.332-3.81,2.38-5.565
										c0.971-1.821,2.264-3.423,3.593-4.941c1.421-1.436,2.917-2.788,4.598-3.841c3.313-2.171,7.054-3.497,10.786-3.944
										c3.742-0.417,7.447,0.077,10.755,1.246c3.315,1.167,6.235,3.007,8.587,5.21c2.36,2.203,4.151,4.762,5.409,7.366
										c1.261,2.605,2.045,5.25,2.361,7.758c0.681,5.033-0.236,9.35-1.376,12.452l-0.203-0.104l0.008-0.012
										c0.035-0.052,0.106-0.065,0.159-0.031c0.014,0.01,0.025,0.022,0.034,0.035c1.497,2.438,2.649,4.318,3.443,5.612
										c0.371,0.609,0.657,1.08,0.863,1.419C184.41,182.927,184.493,183.08,184.493,183.08z"/>
								</g>
							</g>
						</g>
					</g>
				</g>
			</g>
		</g>
		<g>
			<g>
				<polygon fill="#F6AF18" points="148.885,163.02 156.221,153.711 163.557,162.904 				"/>
			</g>
			<g>
				<polygon fill="#F6AF18" points="159.835,180.041 153.154,180.094 152.941,161.513 159.623,161.46 				"/>
			</g>
		</g>
	</g>
</g>
</svg>
