<?xml version="1.0" standalone="no"?>
<!DOCTYPE svg PUBLIC "-//W3C//DTD SVG 20010904//EN"
 "http://www.w3.org/TR/2001/REC-SVG-20010904/DTD/svg10.dtd">
<svg version="1.0" xmlns="http://www.w3.org/2000/svg"
 width="431.000000pt" height="431.000000pt" viewBox="0 0 431.000000 431.000000"
 preserveAspectRatio="xMidYMid meet">
<metadata>
Created by potrace 1.14, written by Peter Selinger 2001-2017
</metadata>
<g transform="translate(0.000000,431.000000) scale(0.100000,-0.100000)"
fill="#000000" stroke="none">
<path d="M0 2155 l0 -2045 2155 0 2155 0 0 2045 0 2045 -2155 0 -2155 0 0
-2045z m1308 -42 l-3 -1508 -402 -3 -403 -2 0 1510 0 1510 405 0 405 0 -2
-1507z m2562 1207 l0 -300 -372 0 -373 0 3 -1187 c1 -654 0 -1198 -3 -1210
l-5 -23 -400 0 -400 0 0 1210 0 1210 -372 2 -373 3 -3 285 c-1 157 0 290 3
297 3 10 236 13 1150 13 l1145 0 0 -300z"/>
</g>
</svg>
