<?xml version="1.0" encoding="utf-8"?>
<!-- Generator: Adobe Illustrator 16.0.2, SVG Export Plug-In . SVG Version: 6.00 Build 0)  -->
<!DOCTYPE svg PUBLIC "-//W3C//DTD SVG 1.1//EN" "http://www.w3.org/Graphics/SVG/1.1/DTD/svg11.dtd">
<svg version="1.1" id="Layer_1" xmlns="http://www.w3.org/2000/svg" xmlns:xlink="http://www.w3.org/1999/xlink" x="0px" y="0px"
	 width="500px" height="500px" viewBox="0 0 500 500" enable-background="new 0 0 500 500" xml:space="preserve">
<g id="Background_Complete">
	<g>
		<g>
			<path fill="#F5F5F5" d="M30.708,160.762c1.394-0.844,2.877-1.481,4.408-1.916l0.906-4.363l7.372-0.129l1.063,4.328
				c1.545,0.381,3.051,0.967,4.473,1.76L52.656,158l5.307,5.122l-2.312,3.811c0.845,1.395,1.481,2.879,1.916,4.407l4.362,0.908
				l0.13,7.372l-4.329,1.063c-0.38,1.544-0.967,3.05-1.759,4.473l2.441,3.726l-5.121,5.306l-3.811-2.312
				c-1.394,0.842-2.878,1.481-4.407,1.916l-0.908,4.363l-7.372,0.129l-1.063-4.329c-1.545-0.381-3.05-0.967-4.473-1.76l-3.726,2.442
				l-5.306-5.121l2.312-3.811c-0.844-1.394-1.481-2.878-1.916-4.409l-4.363-0.906l-0.129-7.372l4.328-1.063
				c0.381-1.545,0.967-3.05,1.76-4.473l-2.442-3.728l5.121-5.304L30.708,160.762L30.708,160.762z M34.638,170.583
				c-3.034,3.145-2.946,8.15,0.197,11.186c3.142,3.034,8.147,2.944,11.184-0.197c3.034-3.143,2.946-8.15-0.197-11.184
				C42.679,167.352,37.672,167.44,34.638,170.583z"/>
		</g>
	</g>
	<g>
		<g>
			<path fill="#F5F5F5" d="M286.142,37.196c1.188-0.717,2.449-1.261,3.752-1.631l0.772-3.714l6.273-0.11l0.903,3.684
				c1.313,0.324,2.596,0.823,3.807,1.498l3.171-2.077l4.518,4.357l-1.968,3.242c0.719,1.187,1.263,2.45,1.633,3.753l3.713,0.773
				l0.108,6.272l-3.684,0.903c-0.324,1.313-0.823,2.596-1.498,3.807l2.078,3.172l-4.358,4.517l-3.242-1.967
				c-1.187,0.718-2.448,1.262-3.753,1.631l-0.771,3.714l-6.273,0.108l-0.903-3.684c-1.314-0.324-2.596-0.823-3.809-1.498
				l-3.171,2.079l-4.516-4.359l1.966-3.241c-0.717-1.188-1.261-2.449-1.631-3.753l-3.713-0.771l-0.11-6.274l3.687-0.902
				c0.321-1.314,0.821-2.598,1.497-3.809l-2.078-3.171l4.356-4.515L286.142,37.196L286.142,37.196z M289.487,45.555
				c-2.583,2.675-2.508,6.937,0.167,9.52c2.677,2.583,6.938,2.507,9.521-0.167s2.508-6.937-0.167-9.52S292.07,42.88,289.487,45.555z
				"/>
		</g>
	</g>
	<g>
		<g>
			<path fill="#F5F5F5" d="M73.992,41.461c1.927-1.164,3.979-2.047,6.094-2.646l1.255-6.033l10.192-0.178L93,38.586
				c2.136,0.526,4.217,1.336,6.184,2.435l5.151-3.377l7.333,7.081l-3.192,5.265c1.165,1.928,2.048,3.98,2.648,6.096l6.03,1.255
				l0.181,10.192l-5.984,1.467c-0.524,2.136-1.336,4.216-2.433,6.186l3.376,5.149l-7.08,7.333l-5.268-3.191
				c-1.927,1.165-3.979,2.047-6.095,2.646l-1.256,6.033l-10.192,0.179l-1.467-5.982c-2.136-0.526-4.217-1.337-6.184-2.435
				l-5.151,3.377l-7.333-7.081l3.193-5.266c-1.165-1.927-2.048-3.979-2.649-6.095l-6.03-1.255l-0.181-10.192l5.984-1.467
				c0.524-2.136,1.337-4.217,2.433-6.186l-3.376-5.149l7.08-7.333L73.992,41.461L73.992,41.461z M79.425,55.039
				c-4.195,4.347-4.073,11.27,0.271,15.463c4.347,4.195,11.27,4.073,15.464-0.271c4.192-4.345,4.071-11.27-0.271-15.462
				C90.542,50.573,83.62,50.694,79.425,55.039z"/>
		</g>
	</g>
	<g>
		<g>
			<path fill="#F5F5F5" d="M238.382,215.982c1.394-0.842,2.878-1.481,4.408-1.916l0.908-4.363l7.37-0.129l1.063,4.328
				c1.545,0.38,3.051,0.967,4.474,1.76l3.728-2.44l5.304,5.12l-2.309,3.811c0.842,1.394,1.479,2.878,1.915,4.409l4.361,0.908
				l0.129,7.37l-4.328,1.063c-0.381,1.544-0.967,3.05-1.76,4.473l2.442,3.728l-5.121,5.305l-3.81-2.31
				c-1.396,0.842-2.88,1.479-4.408,1.916l-0.908,4.361l-7.372,0.13l-1.062-4.328c-1.546-0.382-3.051-0.968-4.474-1.761l-3.726,2.442
				l-5.306-5.122l2.312-3.809c-0.843-1.396-1.481-2.88-1.916-4.409l-4.363-0.908l-0.129-7.372l4.328-1.062
				c0.381-1.546,0.967-3.052,1.76-4.475l-2.44-3.726l5.119-5.306L238.382,215.982L238.382,215.982z M242.313,225.803
				c-3.034,3.143-2.944,8.148,0.197,11.184c3.142,3.034,8.149,2.946,11.184-0.197c3.033-3.143,2.946-8.148-0.195-11.184
				C250.354,222.572,245.347,222.66,242.313,225.803z"/>
		</g>
	</g>
	<g>
		<g>
			<path fill="#F5F5F5" d="M259.148,347.918c1.396-0.843,2.878-1.479,4.408-1.916l0.908-4.361l7.372-0.129l1.061,4.326
				c1.545,0.383,3.051,0.969,4.476,1.762l3.726-2.442l5.304,5.121l-2.309,3.809c0.842,1.396,1.479,2.879,1.915,4.409l4.363,0.908
				l0.129,7.372l-4.328,1.061c-0.381,1.545-0.967,3.052-1.76,4.475l2.44,3.727l-5.121,5.304l-3.809-2.31
				c-1.396,0.843-2.879,1.481-4.409,1.916l-0.908,4.363l-7.372,0.129l-1.061-4.328c-1.545-0.381-3.05-0.968-4.473-1.76l-3.728,2.44
				l-5.305-5.122l2.31-3.809c-0.843-1.396-1.479-2.878-1.916-4.408l-4.361-0.908l-0.131-7.372l4.329-1.062
				c0.38-1.544,0.969-3.05,1.761-4.472l-2.442-3.729l5.121-5.304L259.148,347.918L259.148,347.918z M263.079,357.739
				c-3.035,3.143-2.946,8.149,0.194,11.184c3.144,3.035,8.149,2.946,11.186-0.194c3.035-3.144,2.944-8.15-0.196-11.186
				C271.12,354.508,266.112,354.596,263.079,357.739z"/>
		</g>
	</g>
	<g>
		<g>
			<path fill="#F5F5F5" d="M82.16,265.357c0.938-0.567,1.939-0.998,2.973-1.291l0.612-2.942l4.971-0.087l0.715,2.918
				c1.042,0.257,2.057,0.652,3.016,1.188l2.514-1.646l3.577,3.453l-1.56,2.568c0.568,0.938,0.999,1.938,1.292,2.973l2.942,0.612
				l0.087,4.971l-2.918,0.716c-0.256,1.041-0.652,2.059-1.188,3.018l1.646,2.513l-3.453,3.576l-2.568-1.56
				c-0.938,0.568-1.939,0.999-2.973,1.292l-0.612,2.942l-4.971,0.087l-0.715-2.919c-1.042-0.257-2.057-0.652-3.017-1.188
				l-2.513,1.646l-3.577-3.454l1.56-2.569c-0.568-0.938-0.999-1.938-1.292-2.973l-2.942-0.611l-0.087-4.971l2.918-0.716
				c0.257-1.042,0.652-2.057,1.188-3.016l-1.646-2.515l3.453-3.576L82.16,265.357L82.16,265.357z M84.81,271.979
				c-2.046,2.119-1.984,5.495,0.133,7.541c2.119,2.046,5.495,1.984,7.541-0.133c2.045-2.119,1.986-5.495-0.133-7.541
				S86.855,269.86,84.81,271.979z"/>
		</g>
	</g>
	<g>
		<g>
			<path fill="#F5F5F5" d="M89.541,303.662c1.713-1.035,3.537-1.82,5.418-2.354l1.116-5.363l9.061-0.159l1.304,5.32
				c1.899,0.468,3.75,1.188,5.498,2.163l4.58-3.002l6.521,6.295l-2.838,4.681c1.034,1.714,1.819,3.539,2.354,5.42l5.363,1.116
				l0.159,9.061l-5.32,1.307c-0.468,1.896-1.188,3.748-2.163,5.497l3.001,4.58l-6.294,6.52l-4.682-2.839
				c-1.716,1.036-3.538,1.82-5.419,2.354l-1.116,5.363l-9.063,0.159l-1.304-5.32c-1.898-0.468-3.749-1.188-5.498-2.163l-4.579,3.002
				l-6.52-6.295l2.839-4.682c-1.036-1.714-1.821-3.537-2.355-5.419l-5.361-1.116l-0.159-9.061l5.318-1.307
				c0.47-1.896,1.189-3.749,2.163-5.497l-3.002-4.58l6.294-6.52L89.541,303.662L89.541,303.662z M94.372,315.732
				c-3.73,3.863-3.622,10.018,0.24,13.747c3.862,3.729,10.019,3.621,13.746-0.242c3.729-3.862,3.621-10.017-0.24-13.746
				C104.255,311.762,98.101,311.87,94.372,315.732z"/>
		</g>
	</g>
	<g>
		<g>
			<g>
				<g>
					<rect x="341.151" y="46.083" fill="#E0E0E0" width="137.537" height="231.747"/>
				</g>
			</g>
		</g>
		<g>
			<g>
				<g>
					<rect x="344.857" y="50.437" fill="#F5F5F5" width="129.656" height="223.583"/>
				</g>
			</g>
		</g>
		<g>
			<g>
				<g>
					<g>
						<rect x="409.685" y="62.381" fill="#FFFFFF" width="51.7" height="80.227"/>
					</g>
				</g>
			</g>
			<g>
				<g>
					<g>
						<circle fill="#E0E0E0" cx="436.355" cy="69.475" r="1.93"/>
					</g>
				</g>
			</g>
		</g>
		<g>
			<g>
				<g>
					<g>
						<rect x="357.58" y="164.934" fill="#FFFFFF" width="51.701" height="80.225"/>
					</g>
				</g>
			</g>
			<g>
				<g>
					<g>
						<circle fill="#E0E0E0" cx="384.252" cy="172.026" r="1.93"/>
					</g>
				</g>
			</g>
		</g>
		<g>
			<g>
				<g>
					<g>
						<rect x="356.882" y="62.381" fill="#FFFFFF" width="44.152" height="62.647"/>
					</g>
				</g>
			</g>
			<g>
				<g>
					<g>
						<circle fill="#E0E0E0" cx="378.959" cy="68.071" r="1.603"/>
					</g>
				</g>
			</g>
		</g>
		<g>
			<g>
				<g>
					<g>
						
							<rect x="417.192" y="168.614" transform="matrix(0.9937 -0.1121 0.1121 0.9937 -17.5987 50.5787)" fill="#FFFFFF" width="47.519" height="26.329"/>
					</g>
				</g>
			</g>
			<g>
				<g>
					<g>
						<circle fill="#E0E0E0" cx="440.032" cy="173.662" r="1.635"/>
					</g>
				</g>
			</g>
		</g>
		<g>
			<g>
				<g>
					<g>
						<ellipse fill="#E0E0E0" cx="384.252" cy="183.232" rx="18.132" ry="0.385"/>
					</g>
				</g>
			</g>
		</g>
		<g>
			<g>
				<g>
					<g>
						<ellipse fill="#E0E0E0" cx="384.252" cy="188.972" rx="18.132" ry="0.385"/>
					</g>
				</g>
			</g>
		</g>
		<g>
			<g>
				<g>
					<g>
						<ellipse fill="#E0E0E0" cx="384.252" cy="194.712" rx="18.132" ry="0.385"/>
					</g>
				</g>
			</g>
		</g>
		<g>
			<g>
				<g>
					<g>
						<ellipse fill="#E0E0E0" cx="384.252" cy="200.452" rx="18.132" ry="0.385"/>
					</g>
				</g>
			</g>
		</g>
		<g>
			<g>
				<g>
					<g>
						<ellipse fill="#E0E0E0" cx="384.252" cy="206.192" rx="18.132" ry="0.385"/>
					</g>
				</g>
			</g>
		</g>
		<g>
			<g>
				<g>
					<g>
						<ellipse fill="#E0E0E0" cx="384.252" cy="211.932" rx="18.132" ry="0.385"/>
					</g>
				</g>
			</g>
		</g>
		<g>
			<g>
				<g>
					<g>
						<ellipse fill="#E0E0E0" cx="384.252" cy="217.671" rx="18.132" ry="0.386"/>
					</g>
				</g>
			</g>
		</g>
		<g>
			<g>
				<g>
					<g>
						
							<ellipse transform="matrix(-0.9902 0.1396 -0.1396 -0.9902 902.2117 295.9911)" fill="#E0E0E0" cx="440.724" cy="179.639" rx="18.131" ry="0.385"/>
					</g>
				</g>
			</g>
		</g>
		<g>
			<g>
				<g>
					<g>
						
							<ellipse transform="matrix(-0.9902 0.1396 -0.1396 -0.9902 904.1467 303.0333)" fill="#E0E0E0" cx="441.445" cy="183.229" rx="18.131" ry="0.385"/>
					</g>
				</g>
			</g>
		</g>
		<g>
			<g>
				<g>
					<g>
						
							<ellipse transform="matrix(-0.99 0.1409 -0.1409 -0.99 906.0233 308.9394)" fill="#E0E0E0" cx="442.075" cy="186.544" rx="18.132" ry="0.385"/>
					</g>
				</g>
			</g>
		</g>
		<g>
			<g>
				<g>
					<g>
						<ellipse fill="#E0E0E0" cx="436.355" cy="79.165" rx="20.484" ry="0.385"/>
					</g>
				</g>
			</g>
		</g>
		<g>
			<g>
				<g>
					<g>
						<ellipse fill="#E0E0E0" cx="436.355" cy="82.577" rx="20.484" ry="0.385"/>
					</g>
				</g>
			</g>
		</g>
		<g>
			<g>
				<g>
					<g>
						<ellipse fill="#E0E0E0" cx="436.355" cy="85.99" rx="20.484" ry="0.385"/>
					</g>
				</g>
			</g>
		</g>
		<g>
			<g>
				<g>
					<g>
						<ellipse fill="#E0E0E0" cx="436.355" cy="89.403" rx="20.484" ry="0.385"/>
					</g>
				</g>
			</g>
		</g>
		<g>
			<g>
				<g>
					<g>
						<ellipse fill="#E0E0E0" cx="436.355" cy="92.816" rx="20.484" ry="0.385"/>
					</g>
				</g>
			</g>
		</g>
		<g>
			<g>
				<g>
					<g>
						<ellipse fill="#E0E0E0" cx="436.355" cy="96.229" rx="20.484" ry="0.385"/>
					</g>
				</g>
			</g>
		</g>
		<g>
			<g>
				<g>
					<g>
						<ellipse fill="#E0E0E0" cx="436.355" cy="99.642" rx="20.484" ry="0.385"/>
					</g>
				</g>
			</g>
		</g>
		<g>
			<g>
				<g>
					<g>
						<ellipse fill="#E0E0E0" cx="436.355" cy="109.77" rx="20.484" ry="0.385"/>
					</g>
				</g>
			</g>
		</g>
		<g>
			<g>
				<g>
					<g>
						<ellipse fill="#E0E0E0" cx="436.644" cy="113.375" rx="20.484" ry="0.385"/>
					</g>
				</g>
			</g>
		</g>
		<g>
			<g>
				<g>
					<g>
						<ellipse fill="#E0E0E0" cx="436.933" cy="116.979" rx="20.484" ry="0.385"/>
					</g>
				</g>
			</g>
		</g>
		<g>
			<g>
				<g>
					<g>
						<ellipse fill="#E0E0E0" cx="437.221" cy="120.584" rx="20.482" ry="0.385"/>
					</g>
				</g>
			</g>
		</g>
		<g>
			<g>
				<g>
					<g>
						<ellipse fill="#E0E0E0" cx="437.509" cy="124.188" rx="20.482" ry="0.385"/>
					</g>
				</g>
			</g>
		</g>
		<g>
			<g>
				<g>
					<g>
						<ellipse fill="#E0E0E0" cx="437.797" cy="127.793" rx="20.482" ry="0.385"/>
					</g>
				</g>
			</g>
		</g>
	</g>
	<g>
		<g>
			<g>
				<g>
					<path fill="#F5F5F5" d="M170.933,91.764h-29.637c-2.048,0-3.708-1.66-3.708-3.708V47.034c0-2.048,1.66-3.708,3.708-3.708
						h18.796l14.549,14.996v29.734C174.641,90.104,172.981,91.764,170.933,91.764z"/>
				</g>
			</g>
			<g>
				<g>
					<path fill="#E0E0E0" d="M170.112,91.764h-27.994c-2.502,0-4.529-2.027-4.529-4.529V77.067h37.053v10.168
						C174.641,89.736,172.614,91.764,170.112,91.764z"/>
				</g>
			</g>
			<g>
				<g>
					<path fill="#FAFAFA" d="M150.719,86.547l0.933-1.117c0.396,0.526,0.829,0.797,1.349,0.797c0.673,0,1.024-0.404,1.024-1.202
						v-3.45h-2.549v-1.347h4.217v4.703c0,1.792-0.899,2.673-2.609,2.673C152.108,87.604,151.248,87.231,150.719,86.547z"/>
				</g>
				<g>
					<path fill="#FAFAFA" d="M156.695,86.961l0.539-1.161c0.497,0.321,1.253,0.539,1.938,0.539c0.746,0,1.024-0.195,1.024-0.508
						c0-0.912-3.365,0.021-3.365-2.207c0-1.057,0.953-1.803,2.58-1.803c0.767,0,1.614,0.176,2.145,0.487l-0.539,1.148
						c-0.549-0.311-1.099-0.415-1.604-0.415c-0.727,0-1.036,0.229-1.036,0.52c0,0.953,3.367,0.029,3.367,2.227
						c0,1.036-0.966,1.772-2.633,1.772C158.166,87.563,157.213,87.303,156.695,86.961z"/>
				</g>
			</g>
			<g>
				<g>
					<path fill="#FAFAFA" d="M145.438,69.353l1.162-1.362c0.761,1.082,1.743,1.663,2.925,1.663c1.583,0,2.404-0.961,2.404-2.844
						v-7.873h-5.068v-1.743h7.053v9.516c0,3.125-1.522,4.667-4.389,4.667C147.862,71.375,146.34,70.654,145.438,69.353z"/>
				</g>
				<g>
					<path fill="#FAFAFA" d="M156.378,70.094l0.801-1.522c0.901,0.641,2.344,1.102,3.726,1.102c1.783,0,2.524-0.541,2.524-1.44
						c0-2.383-6.711-0.32-6.711-4.547c0-1.903,1.703-3.187,4.427-3.187c1.382,0,2.944,0.36,3.866,0.961l-0.821,1.522
						c-0.961-0.621-2.021-0.841-3.063-0.841c-1.684,0-2.504,0.621-2.504,1.462c0,2.504,6.729,0.461,6.729,4.588
						c0,1.923-1.763,3.145-4.587,3.145C159.002,71.335,157.259,70.794,156.378,70.094z"/>
				</g>
			</g>
			<g>
				<g>
					<path fill="#EBEBEB" d="M160.092,43.326v11.545c0,1.905,1.544,3.449,3.449,3.449l11.101,0.002L160.092,43.326z"/>
				</g>
			</g>
			<g>
				<g>
					<path fill="#E0E0E0" d="M160.243,55.884c0,0-0.146,2.802,3.042,3.723c0.118,0.034,0.24,0.06,0.363,0.082
						c1.45,0.259,10.991,1.957,10.991,1.735c0-0.235,0-3.103,0-3.103h-11.1C163.541,58.322,160.769,58.227,160.243,55.884z"/>
				</g>
			</g>
		</g>
	</g>
</g>
<g id="Background_Simple" display="none">
	<path display="inline" fill="#F5F5F5" d="M351.44,35.763l-1.523,1.043c-12.85,8.796-20.061,23.817-18.241,39.141
		c0.231,1.97,0.607,3.923,1.132,5.841c3.761,13.815,15,25.397,28.814,29.695c8.125,2.527,17.34,2.852,23.97,8.132
		c8.627,6.871,9.566,19.29,9.829,30.239c0.26,10.95,1.232,23.375,9.893,30.208c5.422,4.28,12.856,5.326,19.762,4.578
		c18.283-1.982,33.979-15.661,41.233-32.358c7.257-16.697,6.936-35.87,2.373-53.457c-6.394-24.638-21.485-47.572-43.57-60.643
		C403.025,25.114,373.805,23.105,351.44,35.763z"/>
	<circle display="inline" fill="#F5F5F5" cx="92.401" cy="333.282" r="36.908"/>
	<circle display="inline" fill="#F5F5F5" cx="98.526" cy="61.776" r="28.841"/>
</g>
<g id="Table">
	<g>
		<polygon fill="#455A64" points="15.876,445.462 68.66,409.818 324.406,408.595 336.113,445.996 		"/>
		<polygon fill="#455A64" points="335.447,460.065 15.351,459.832 15.351,444.763 335.587,445.764 		"/>
		<g>
			<path fill="#263238" d="M327.595,445.678c0,0.144-69.121,0.228-154.366,0.188c-85.273-0.041-154.381-0.188-154.381-0.334
				c0-0.144,69.106-0.228,154.381-0.188C258.475,445.385,327.595,445.535,327.595,445.678z"/>
		</g>
	</g>
</g>
<g id="Files">
	<g>
		<g>
			<g>
				<g>
					<path fill="#F6AF18" d="M247.969,115.069h-50.253c-3.473,0-6.288-2.815-6.288-6.288V39.223c0-3.475,2.815-6.288,6.288-6.288
						h31.871l24.671,25.428v50.417C254.257,112.253,251.442,115.069,247.969,115.069z"/>
				</g>
			</g>
			<g opacity="0.2">
				<g>
					<path d="M247.779,115.069h-49.873c-3.576,0-6.479-2.9-6.479-6.479V91.387c0-0.687,0.555-1.239,1.239-1.239h60.352
						c0.687,0,1.239,0.555,1.239,1.239v17.201C254.257,112.168,251.356,115.069,247.779,115.069z"/>
				</g>
			</g>
			<g opacity="0.2">
				<g>
					<path fill="#FFFFFF" d="M229.586,32.935v19.577c0,3.229,2.618,5.848,5.848,5.848l18.823,0.003L229.586,32.935z"/>
				</g>
			</g>
			<g opacity="0.2">
				<g>
					<path d="M229.843,54.229c0,0-0.248,4.748,5.158,6.309c0.203,0.061,0.411,0.104,0.619,0.141
						c2.458,0.438,18.638,3.315,18.638,2.944c0-0.4,0-5.26,0-5.26h-18.823C235.434,58.363,230.734,58.203,229.843,54.229z"/>
				</g>
			</g>
		</g>
		<g>
			<g>
				<path fill="#FAFAFA" d="M209.413,101.006c0-2.944,2.262-5.053,5.305-5.053c1.688,0,3.099,0.614,4.021,1.731l-1.45,1.34
					c-0.656-0.754-1.479-1.146-2.457-1.146c-1.829,0-3.127,1.284-3.127,3.127c0,1.844,1.298,3.127,3.127,3.127
					c0.977,0,1.801-0.391,2.457-1.157l1.45,1.34c-0.921,1.131-2.329,1.745-4.032,1.745
					C211.675,106.06,209.413,103.952,209.413,101.006z"/>
			</g>
			<g>
				<path fill="#FAFAFA" d="M219.403,104.929l0.77-1.703c0.824,0.6,2.052,1.019,3.225,1.019c1.34,0,1.884-0.447,1.884-1.046
					c0-1.829-5.681-0.572-5.681-4.202c0-1.662,1.34-3.043,4.118-3.043c1.229,0,2.484,0.292,3.392,0.865l-0.695,1.717
					c-0.907-0.517-1.845-0.768-2.708-0.768c-1.341,0-1.856,0.502-1.856,1.117c0,1.801,5.681,0.559,5.681,4.146
					c0,1.633-1.354,3.029-4.146,3.029C221.833,106.06,220.269,105.599,219.403,104.929z"/>
			</g>
			<g>
				<path fill="#FAFAFA" d="M228.305,104.929l0.767-1.703c0.824,0.6,2.055,1.019,3.228,1.019c1.34,0,1.884-0.447,1.884-1.046
					c0-1.829-5.682-0.572-5.682-4.202c0-1.662,1.34-3.043,4.118-3.043c1.229,0,2.483,0.292,3.393,0.865l-0.698,1.717
					c-0.906-0.517-1.842-0.768-2.708-0.768c-1.34,0-1.854,0.502-1.854,1.117c0,1.801,5.682,0.559,5.682,4.146
					c0,1.633-1.354,3.029-4.146,3.029C230.734,106.06,229.171,105.599,228.305,104.929z"/>
			</g>
		</g>
		<g>
			<g>
				<path fill="#FAFAFA" d="M212.605,69.382c1.032,0.314,1.504,0.967,1.504,2.516v3.592c0,1.055,0.54,1.662,1.641,1.662h0.402v2.738
					h-1.301c-2.807,0-4.243-1.438-4.243-4.021v-4.062c0-0.72-0.381-1.058-0.985-1.058h-0.741v-2.736h0.741
					c0.604,0,0.985-0.337,0.985-1.057v-4.063c0-2.581,1.438-4.02,4.243-4.02h1.301v2.739h-0.402c-1.101,0-1.641,0.606-1.641,1.662
					v3.591C214.109,68.417,213.637,69.067,212.605,69.382z"/>
			</g>
			<g>
				<path fill="#FAFAFA" d="M236.806,68.013v2.736h-0.742c-0.604,0-0.985,0.337-0.985,1.058v4.062c0,2.582-1.438,4.021-4.243,4.021
					h-1.301V77.15h0.402c1.102,0,1.641-0.607,1.641-1.662v-3.592c0-1.549,0.472-2.2,1.504-2.516
					c-1.033-0.313-1.504-0.965-1.504-2.514v-3.591c0-1.056-0.539-1.662-1.641-1.662h-0.402v-2.739h1.301
					c2.807,0,4.243,1.438,4.243,4.02v4.063c0,0.718,0.381,1.057,0.985,1.057H236.806L236.806,68.013z"/>
			</g>
		</g>
	</g>
	<g>
		<g>
			<g>
				<g>
					<path fill="#F6AF18" d="M318.342,165.565h-51.014c-3.525,0-6.385-2.858-6.385-6.383V88.573c0-3.525,2.857-6.383,6.385-6.383
						h32.353l25.044,25.812v51.182C324.725,162.708,321.865,165.565,318.342,165.565z"/>
				</g>
			</g>
			<g opacity="0.2">
				<g>
					<path d="M317.827,165.565h-49.984c-3.81,0-6.896-3.088-6.896-6.896v-18.399h63.779v18.399
						C324.725,162.478,321.637,165.565,317.827,165.565z"/>
				</g>
			</g>
			<g opacity="0.2">
				<g>
					<path fill="#FFFFFF" d="M299.681,82.19v19.872c0,3.276,2.657,5.937,5.936,5.937l19.108,0.003L299.681,82.19z"/>
				</g>
			</g>
			<g opacity="0.2">
				<g>
					<path d="M299.942,103.806c0,0-0.251,4.818,5.235,6.402c0.206,0.062,0.417,0.104,0.628,0.144
						c2.495,0.444,18.92,3.368,18.92,2.988c0-0.406,0-5.34,0-5.34h-19.108C305.615,108.002,300.846,107.839,299.942,103.806z"/>
				</g>
			</g>
		</g>
		<g>
			<g>
				<path fill="#FAFAFA" d="M287.138,119.377l-7.656,2.808l7.656,2.78v2.874l-10.944-4.159v-2.989l10.944-4.162V119.377z"/>
			</g>
			<g>
				<path fill="#FAFAFA" d="M295.366,110.871h3.193l-7.587,21.658h-3.196L295.366,110.871z"/>
			</g>
			<g>
				<path fill="#FAFAFA" d="M309.915,120.688v2.989l-10.942,4.159v-2.874l7.657-2.78l-7.657-2.808v-2.851L309.915,120.688z"/>
			</g>
		</g>
		<g>
			<g>
				<path fill="#FAFAFA" d="M284.535,149.682v8.57h-1.984v-3.515h-3.896v3.515h-1.981v-8.57h1.981v3.38h3.896v-3.38H284.535z"/>
			</g>
			<g>
				<path fill="#FAFAFA" d="M288.341,151.298h-2.743v-1.615h7.47v1.615h-2.741v6.956h-1.983L288.341,151.298L288.341,151.298z"/>
			</g>
			<g>
				<path fill="#FAFAFA" d="M301.932,158.254l-0.012-5.144l-2.523,4.237h-0.894l-2.511-4.127v5.031h-1.86v-8.57h1.64l3.209,5.325
					l3.159-5.325h1.629l0.024,8.57L301.932,158.254L301.932,158.254z"/>
			</g>
			<g>
				<path fill="#FAFAFA" d="M305.823,149.682h1.983v6.956h4.299v1.615h-6.282V149.682z"/>
			</g>
		</g>
	</g>
</g>
<g id="Windows">
	<g>
		<path fill="#FFFFFF" d="M138.711,267.519H46.09c-1.688,0-3.058-1.369-3.058-3.06V111.427c0-1.689,1.367-3.06,3.058-3.06h92.622
			c1.688,0,3.058,1.369,3.058,3.06V264.46C141.769,266.15,140.4,267.519,138.711,267.519z"/>
		<path fill="#E0E0E0" d="M141.769,126.152H43.032v-14.175c0-1.992,1.613-3.607,3.605-3.607h91.658c1.917,0,3.472,1.554,3.472,3.472
			L141.769,126.152L141.769,126.152z"/>
		<g>
			<path fill="#263238" d="M138.458,267.52c-0.007-0.03,0.465,0.044,1.271-0.283c0.396-0.17,0.858-0.471,1.267-0.964
				c0.393-0.496,0.722-1.204,0.721-2.047c-0.011-3.406-0.027-8.414-0.048-14.861c-0.021-12.916-0.048-31.588-0.083-54.659
				c-0.018-23.079-0.035-50.556-0.058-81.063v-1.435c0.002-0.489,0.012-0.931-0.116-1.358c-0.23-0.861-0.876-1.598-1.69-1.964
				c-0.408-0.188-0.852-0.278-1.308-0.274l-1.454,0.001c-0.973,0-1.944,0-2.921,0.001c-3.906,0.001-7.856,0.003-11.851,0.004
				c-7.984,0.002-16.139,0.004-24.438,0.007c-16.603,0.001-33.789,0.003-51.395,0.005c-1.021-0.008-2.015,0.529-2.564,1.386
				c-0.271,0.425-0.451,0.913-0.485,1.418c-0.025,0.505-0.007,1.083-0.013,1.621c0,2.188,0,4.367,0,6.543
				c0,4.348,0,8.667-0.001,12.955c-0.001,8.573-0.002,17.022-0.004,25.325c-0.005,16.605-0.012,32.622-0.017,47.879
				c-0.008,15.259-0.017,29.757-0.022,43.325c-0.002,3.394-0.005,6.728-0.007,10c-0.001,1.639-0.003,3.258-0.006,4.864
				c-0.131,1.558,0.986,3.015,2.46,3.307c0.708,0.126,1.536,0.047,2.305,0.07c0.777,0,1.555,0.001,2.326,0.002
				c1.542,0.001,3.067,0.003,4.577,0.004c3.021,0.003,5.975,0.006,8.857,0.009c23.071,0.035,41.741,0.063,54.655,0.083
				c6.444,0.021,11.453,0.037,14.857,0.051c1.692,0.011,2.984,0.02,3.864,0.023C138.011,267.501,138.458,267.52,138.458,267.52
				s-0.446,0.018-1.317,0.024c-0.88,0.008-2.172,0.017-3.864,0.025c-3.405,0.012-8.414,0.028-14.857,0.049
				c-12.914,0.021-31.584,0.048-54.655,0.083c-2.885,0.003-5.838,0.006-8.856,0.009c-1.511,0.001-3.035,0.003-4.578,0.004
				c-0.771,0.003-1.547,0.003-2.326,0.004c-0.788-0.026-1.54,0.064-2.389-0.075c-0.817-0.17-1.568-0.652-2.075-1.326
				c-0.516-0.665-0.761-1.555-0.709-2.373c-0.001-1.606-0.002-3.229-0.004-4.864c-0.004-3.271-0.006-6.605-0.009-10
				c-0.007-13.567-0.015-28.066-0.022-43.325c-0.004-15.258-0.01-31.272-0.017-47.879c-0.001-8.302-0.002-16.751-0.004-25.327
				c0-4.286,0-8.605-0.001-12.953c0-2.176,0-4.355,0-6.543c0.006-0.558-0.015-1.074,0.016-1.663c0.041-0.592,0.25-1.164,0.567-1.661
				c0.644-1,1.813-1.63,3.001-1.619c17.604,0.002,34.792,0.003,51.395,0.005c8.3,0.002,16.454,0.004,24.438,0.006
				c3.993,0.001,7.943,0.002,11.851,0.004c0.977,0,1.948,0.001,2.921,0.001h1.454c0.513-0.005,1.038,0.103,1.507,0.318
				c0.942,0.427,1.687,1.277,1.955,2.274c0.146,0.495,0.138,1.027,0.135,1.489v1.435c-0.021,30.509-0.04,57.983-0.056,81.063
				c-0.035,23.071-0.063,41.743-0.083,54.659c-0.021,6.447-0.039,11.455-0.052,14.862c-0.008,0.869-0.354,1.594-0.765,2.096
				c-0.423,0.5-0.899,0.799-1.306,0.963c-0.408,0.169-0.742,0.202-0.96,0.23C138.569,267.523,138.458,267.52,138.458,267.52z"/>
		</g>
		<circle fill="#FFFFFF" cx="54.673" cy="118.647" r="2.913"/>
		<circle fill="#FFFFFF" cx="63.635" cy="118.647" r="2.913"/>
		<circle fill="#FFFFFF" cx="72.598" cy="118.647" r="2.913"/>
		<g>
			<path fill="#263238" d="M85.997,150.265H67.813c-1.09,0-1.973-0.885-1.973-1.975l0,0c0-1.089,0.883-1.973,1.973-1.973h18.186
				c1.089,0,1.973,0.883,1.973,1.973l0,0C87.969,149.381,87.086,150.265,85.997,150.265z"/>
		</g>
		<g>
			<path fill="#E0E0E0" d="M85.997,160.591H67.813c-1.09,0-1.973-0.883-1.973-1.973l0,0c0-1.089,0.883-1.973,1.973-1.973h18.186
				c1.089,0,1.973,0.883,1.973,1.973l0,0C87.969,159.708,87.086,160.591,85.997,160.591z"/>
		</g>
		<g>
			<path fill="#E0E0E0" d="M86.517,188.878H68.333c-1.09,0-1.975-0.883-1.975-1.973l0,0c0-1.089,0.885-1.973,1.975-1.973h18.183
				c1.089,0,1.973,0.883,1.973,1.973l0,0C88.489,187.996,87.606,188.878,86.517,188.878z"/>
		</g>
		<g>
			<path fill="#FF725E" d="M85.997,171.264H67.813c-1.09,0-1.973-0.885-1.973-1.975l0,0c0-1.089,0.883-1.973,1.973-1.973h18.186
				c1.089,0,1.973,0.883,1.973,1.973l0,0C87.969,170.38,87.086,171.264,85.997,171.264z"/>
		</g>
		<g>
			<path fill="#FF725E" d="M85.997,230.776H67.813c-1.09,0-1.973-0.884-1.973-1.973l0,0c0-1.091,0.883-1.975,1.973-1.975h18.186
				c1.089,0,1.973,0.883,1.973,1.975l0,0C87.969,229.892,87.086,230.776,85.997,230.776z"/>
		</g>
		<g>
			<path fill="#455A64" d="M115.127,150.265H96.944c-1.089,0-1.973-0.885-1.973-1.975l0,0c0-1.089,0.883-1.973,1.973-1.973h18.186
				c1.089,0,1.973,0.883,1.973,1.973l0,0C117.1,149.381,116.217,150.265,115.127,150.265z"/>
		</g>
		<g>
			<path fill="#263238" d="M134.817,160.591H96.775c-0.996,0-1.804-0.883-1.804-1.973l0,0c0-1.089,0.808-1.973,1.804-1.973h38.042
				c0.996,0,1.805,0.883,1.805,1.973l0,0C136.62,159.708,135.813,160.591,134.817,160.591z"/>
		</g>
		<g>
			<path fill="#E0E0E0" d="M133.793,171.264H95.489c-1.022,0-1.854-0.885-1.854-1.975l0,0c0-1.089,0.83-1.973,1.854-1.973h38.307
				c1.022,0,1.854,0.883,1.854,1.973l0,0C135.648,170.38,134.817,171.264,133.793,171.264z"/>
		</g>
		<g>
			<path fill="#E0E0E0" d="M106.123,179.894H67.818c-1.022,0-1.854-0.883-1.854-1.975l0,0c0-1.089,0.83-1.973,1.854-1.973h38.307
				c1.022,0,1.854,0.883,1.854,1.973l0,0C107.977,179.01,107.147,179.894,106.123,179.894z"/>
		</g>
		<g>
			<circle fill="#455A64" cx="56.896" cy="148.292" r="2.004"/>
		</g>
		<g>
			<circle fill="#455A64" cx="56.896" cy="138.409" r="2.004"/>
		</g>
		<g>
			<circle fill="#455A64" cx="56.896" cy="158.587" r="2.004"/>
		</g>
		<g>
			<circle fill="#455A64" cx="56.896" cy="169.291" r="2.004"/>
		</g>
		<g>
			<path fill="#E0E0E0" d="M86.517,217.76H68.333c-1.09,0-1.975-0.885-1.975-1.975l0,0c0-1.09,0.885-1.973,1.975-1.973h18.183
				c1.089,0,1.973,0.883,1.973,1.973l0,0C88.489,216.876,87.606,217.76,86.517,217.76z"/>
		</g>
		<g>
			<path fill="#FF725E" d="M85.997,200.145H67.813c-1.09,0-1.973-0.883-1.973-1.975l0,0c0-1.089,0.883-1.973,1.973-1.973h18.186
				c1.089,0,1.973,0.883,1.973,1.973l0,0C87.969,199.262,87.086,200.145,85.997,200.145z"/>
		</g>
		<g>
			<path fill="#E0E0E0" d="M133.793,200.145H95.489c-1.022,0-1.854-0.883-1.854-1.975l0,0c0-1.089,0.83-1.973,1.854-1.973h38.307
				c1.022,0,1.854,0.883,1.854,1.973l0,0C135.648,199.262,134.817,200.145,133.793,200.145z"/>
		</g>
		<g>
			<path fill="#E0E0E0" d="M106.123,208.775H67.818c-1.022,0-1.854-0.883-1.854-1.973l0,0c0-1.092,0.83-1.975,1.854-1.975h38.307
				c1.022,0,1.854,0.883,1.854,1.975l0,0C107.977,207.892,107.147,208.775,106.123,208.775z"/>
		</g>
		<g>
			<circle fill="#455A64" cx="56.896" cy="198.172" r="2.004"/>
		</g>
		<path fill="#455A64" d="M78.29,140.792H66.906c-0.527,0-0.958-0.429-0.958-0.958v-1.889c0-0.529,0.431-0.958,0.958-0.958H78.29
			c0.527,0,0.958,0.429,0.958,0.958v1.889C79.248,140.363,78.819,140.792,78.29,140.792z"/>
		<g>
			<g>
				<path fill="#263238" d="M85.997,241.291H67.813c-1.09,0-1.973-0.883-1.973-1.973l0,0c0-1.09,0.883-1.973,1.973-1.973h18.186
					c1.089,0,1.973,0.883,1.973,1.973l0,0C87.969,240.408,87.086,241.291,85.997,241.291z"/>
			</g>
			<g>
				<path fill="#455A64" d="M115.127,241.291H96.944c-1.089,0-1.973-0.883-1.973-1.973l0,0c0-1.09,0.883-1.973,1.973-1.973h18.186
					c1.089,0,1.973,0.883,1.973,1.973l0,0C117.1,240.408,116.217,241.291,115.127,241.291z"/>
			</g>
			<g>
				<circle fill="#455A64" cx="56.896" cy="239.318" r="2.004"/>
			</g>
		</g>
		<g>
			<circle fill="#455A64" cx="56.896" cy="248.822" r="2.004"/>
		</g>
		<path fill="#455A64" d="M78.29,251.205H66.906c-0.527,0-0.958-0.429-0.958-0.958v-1.889c0-0.53,0.431-0.958,0.958-0.958H78.29
			c0.527,0,0.958,0.429,0.958,0.958v1.889C79.248,250.776,78.819,251.205,78.29,251.205z"/>
	</g>
	<g>
		<g>
			<rect x="148.363" y="242.954" fill="#FFFFFF" width="180.352" height="114.722"/>
			<g>
				<rect x="148.363" y="242.954" fill="#EBEBEB" width="32.482" height="114.722"/>
			</g>
			<g>
				<g>
					<g>
						<g>
							<g>
								<g>
									<g>
										<path fill="#E0E0E0" d="M162.638,255.334c0.171-0.103,0.354-0.182,0.541-0.232l0.111-0.535l0.902-0.019l0.132,0.531
											c0.188,0.047,0.372,0.119,0.548,0.216l0.458-0.3l0.648,0.629l-0.283,0.467c0.104,0.174,0.184,0.354,0.235,0.541
											l0.535,0.111l0.016,0.904l-0.529,0.131c-0.049,0.188-0.119,0.374-0.218,0.549l0.301,0.457l-0.63,0.65l-0.467-0.283
											c-0.171,0.104-0.354,0.182-0.541,0.235l-0.11,0.533l-0.904,0.018l-0.13-0.531c-0.19-0.047-0.375-0.118-0.549-0.216
											l-0.457,0.3l-0.651-0.628l0.283-0.468c-0.104-0.171-0.184-0.354-0.235-0.541l-0.535-0.111l-0.016-0.904l0.531-0.13
											c0.046-0.188,0.119-0.374,0.216-0.549l-0.3-0.457l0.628-0.649L162.638,255.334L162.638,255.334z M163.121,256.54
											c-0.373,0.388-0.362,1,0.022,1.372c0.386,0.373,1,0.361,1.372-0.021c0.372-0.388,0.361-1-0.022-1.372
											C164.107,256.143,163.493,256.154,163.121,256.54z"/>
									</g>
								</g>
							</g>
						</g>
					</g>
				</g>
			</g>
			<g>
				<path fill="#E0E0E0" d="M170.142,280.679h-14.16c-0.804,0-1.455-0.651-1.455-1.455l0,0c0-0.806,0.651-1.455,1.455-1.455h14.16
					c0.804,0,1.455,0.649,1.455,1.455l0,0C171.597,280.028,170.946,280.679,170.142,280.679z"/>
			</g>
			<g>
				<path fill="#E0E0E0" d="M170.142,273.266h-14.16c-0.804,0-1.455-0.652-1.455-1.455l0,0c0-0.806,0.651-1.455,1.455-1.455h14.16
					c0.804,0,1.455,0.649,1.455,1.455l0,0C171.597,272.614,170.946,273.266,170.142,273.266z"/>
			</g>
			<g>
				<path fill="#E0E0E0" d="M170.142,266.485h-14.16c-0.804,0-1.455-0.652-1.455-1.456l0,0c0-0.804,0.651-1.455,1.455-1.455h14.16
					c0.804,0,1.455,0.651,1.455,1.455l0,0C171.597,265.833,170.946,266.485,170.142,266.485z"/>
			</g>
			<g>
				<path fill="#263238" d="M208.186,259.903h-13.412c-0.804,0-1.455-0.652-1.455-1.455l0,0c0-0.804,0.651-1.455,1.455-1.455h13.412
					c0.806,0,1.455,0.651,1.455,1.455l0,0C209.641,259.25,208.99,259.903,208.186,259.903z"/>
			</g>
			<g>
				<path fill="#E0E0E0" d="M208.186,267.519h-13.412c-0.804,0-1.455-0.651-1.455-1.455l0,0c0-0.803,0.651-1.455,1.455-1.455h13.412
					c0.806,0,1.455,0.652,1.455,1.455l0,0C209.641,266.868,208.99,267.519,208.186,267.519z"/>
			</g>
			<g>
				<path fill="#FF725E" d="M208.186,275.391h-13.412c-0.804,0-1.455-0.651-1.455-1.455l0,0c0-0.806,0.651-1.455,1.455-1.455h13.412
					c0.806,0,1.455,0.649,1.455,1.455l0,0C209.641,274.74,208.99,275.391,208.186,275.391z"/>
			</g>
			<g>
				<path fill="#263238" d="M202.465,290.61h-7.691c-0.804,0-1.455-0.651-1.455-1.455l0,0c0-0.804,0.651-1.455,1.455-1.455h7.691
					c0.803,0,1.455,0.651,1.455,1.455l0,0C203.92,289.958,203.269,290.61,202.465,290.61z"/>
			</g>
			<g>
				<path fill="#263238" d="M202.465,298.499h-7.691c-0.804,0-1.455-0.649-1.455-1.455l0,0c0-0.804,0.651-1.455,1.455-1.455h7.691
					c0.803,0,1.455,0.651,1.455,1.455l0,0C203.92,297.847,203.269,298.499,202.465,298.499z"/>
			</g>
			<g>
				<path fill="#E0E0E0" d="M225.322,298.499H211.22c-0.804,0-1.455-0.649-1.455-1.455l0,0c0-0.804,0.651-1.455,1.455-1.455h14.102
					c0.806,0,1.455,0.651,1.455,1.455l0,0C226.777,297.847,226.125,298.499,225.322,298.499z"/>
			</g>
			<g>
				<path fill="#FF725E" d="M217.345,305.514h-14.102c-0.806,0-1.455-0.651-1.455-1.455l0,0c0-0.806,0.649-1.455,1.455-1.455h14.102
					c0.804,0,1.456,0.649,1.456,1.455l0,0C218.801,304.863,218.149,305.514,217.345,305.514z"/>
			</g>
			<g>
				<path fill="#FF725E" d="M220.469,313.516h-9.686c-0.551,0-0.994-0.445-0.994-0.994v-0.923c0-0.551,0.443-0.993,0.994-0.993
					h9.686c0.548,0,0.993,0.442,0.993,0.993v0.923C221.463,313.071,221.018,313.516,220.469,313.516z"/>
			</g>
			<g>
				<path fill="#FF725E" d="M220.008,329.198h-8.762c-0.806,0-1.456-0.651-1.456-1.455l0,0c0-0.804,0.65-1.455,1.456-1.455h8.762
					c0.804,0,1.455,0.651,1.455,1.455l0,0C221.463,328.546,220.812,329.198,220.008,329.198z"/>
			</g>
			<g>
				<path fill="#FF725E" d="M220.008,345.761h-8.762c-0.806,0-1.456-0.651-1.456-1.455l0,0c0-0.806,0.65-1.455,1.456-1.455h8.762
					c0.804,0,1.455,0.649,1.455,1.455l0,0C221.463,345.11,220.812,345.761,220.008,345.761z"/>
			</g>
			<g>
				<path fill="#455A64" d="M241.549,345.761h-15.362c-0.804,0-1.455-0.651-1.455-1.455l0,0c0-0.806,0.651-1.455,1.455-1.455h15.362
					c0.803,0,1.455,0.649,1.455,1.455l0,0C243.003,345.11,242.352,345.761,241.549,345.761z"/>
			</g>
			<g>
				<path fill="#E0E0E0" d="M252.301,345.761h-2.213c-0.803,0-1.455-0.651-1.455-1.455l0,0c0-0.806,0.652-1.455,1.455-1.455h2.213
					c0.804,0,1.455,0.649,1.455,1.455l0,0C253.756,345.11,253.105,345.761,252.301,345.761z"/>
			</g>
			<g>
				<path fill="#E0E0E0" d="M240.628,329.198h-12.982c-0.804,0-1.455-0.651-1.455-1.455l0,0c0-0.804,0.651-1.455,1.455-1.455h12.982
					c0.804,0,1.456,0.651,1.456,1.455l0,0C242.083,328.546,241.432,329.198,240.628,329.198z"/>
			</g>
			<g>
				<path fill="#E0E0E0" d="M269.096,336.469h-41.45c-0.804,0-1.455-0.651-1.455-1.455l0,0c0-0.806,0.651-1.455,1.455-1.455h41.45
					c0.804,0,1.455,0.649,1.455,1.455l0,0C270.551,335.818,269.9,336.469,269.096,336.469z"/>
			</g>
			<g>
				<path fill="#455A64" d="M273.884,329.198H247.42c-0.804,0-1.455-0.651-1.455-1.455l0,0c0-0.804,0.651-1.455,1.455-1.455h26.464
					c0.804,0,1.455,0.651,1.455,1.455l0,0C275.339,328.546,274.688,329.198,273.884,329.198z"/>
			</g>
			<g>
				<path fill="#455A64" d="M238.156,313.516h-11.887c-0.549,0-0.994-0.445-0.994-0.994v-0.923c0-0.551,0.445-0.993,0.994-0.993
					h11.887c0.551,0,0.993,0.442,0.993,0.993v0.923C239.149,313.071,238.705,313.516,238.156,313.516z"/>
			</g>
			<g>
				<path fill="#E0E0E0" d="M247.645,313.516h-3.646c-0.549,0-0.994-0.445-0.994-0.994v-0.923c0-0.551,0.445-0.993,0.994-0.993
					h3.646c0.549,0,0.994,0.442,0.994,0.993v0.923C248.639,313.071,248.194,313.516,247.645,313.516z"/>
			</g>
			<g>
				<path fill="#E0E0E0" d="M268.549,313.516h-14.632c-0.549,0-0.994-0.445-0.994-0.994v-0.923c0-0.551,0.445-0.993,0.994-0.993
					h14.632c0.549,0,0.993,0.442,0.993,0.993v0.923C269.542,313.071,269.098,313.516,268.549,313.516z"/>
			</g>
			<g>
				<path fill="#263238" d="M226.897,305.514h-3.142c-0.804,0-1.455-0.651-1.455-1.455l0,0c0-0.806,0.651-1.455,1.455-1.455h3.142
					c0.806,0,1.455,0.649,1.455,1.455l0,0C228.353,304.863,227.701,305.514,226.897,305.514z"/>
			</g>
			<g>
				<path fill="#E0E0E0" d="M253.52,305.514h-20.008c-0.804,0-1.455-0.651-1.455-1.455l0,0c0-0.806,0.651-1.455,1.455-1.455h20.008
					c0.806,0,1.455,0.649,1.455,1.455l0,0C254.975,304.863,254.324,305.514,253.52,305.514z"/>
			</g>
			<g>
				<path fill="#455A64" d="M229.673,259.903h-13.412c-0.804,0-1.455-0.652-1.455-1.455l0,0c0-0.804,0.651-1.455,1.455-1.455h13.412
					c0.804,0,1.455,0.651,1.455,1.455l0,0C231.128,259.25,230.477,259.903,229.673,259.903z"/>
			</g>
			<g>
				<path fill="#263238" d="M246.954,267.519h-30.693c-0.804,0-1.455-0.651-1.455-1.455l0,0c0-0.803,0.651-1.455,1.455-1.455h30.693
					c0.803,0,1.455,0.652,1.455,1.455l0,0C248.409,266.868,247.757,267.519,246.954,267.519z"/>
			</g>
			<g>
				<path fill="#E0E0E0" d="M279.999,275.391h-63.737c-0.804,0-1.455-0.651-1.455-1.455l0,0c0-0.806,0.651-1.455,1.455-1.455h63.737
					c0.804,0,1.455,0.649,1.455,1.455l0,0C281.454,274.74,280.802,275.391,279.999,275.391z"/>
			</g>
			<g>
				<path fill="#E0E0E0" d="M246.314,280.936h-30.053c-0.804,0-1.455-0.651-1.455-1.455l0,0c0-0.804,0.651-1.456,1.455-1.456h30.053
					c0.806,0,1.455,0.652,1.455,1.456l0,0C247.77,280.285,247.118,280.936,246.314,280.936z"/>
			</g>
			<g>
				<path fill="#455A64" d="M240.167,290.61h-30.055c-0.804,0-1.453-0.651-1.453-1.455l0,0c0-0.804,0.649-1.455,1.453-1.455h30.055
					c0.804,0,1.456,0.651,1.456,1.455l0,0C241.622,289.958,240.97,290.61,240.167,290.61z"/>
			</g>
			<g>
				<path fill="#FF725E" d="M256.991,290.61h-10.073c-0.806,0-1.455-0.651-1.455-1.455l0,0c0-0.804,0.649-1.455,1.455-1.455h10.073
					c0.804,0,1.453,0.651,1.453,1.455l0,0C258.446,289.958,257.794,290.61,256.991,290.61z"/>
			</g>
			<g>
				<path fill="#263238" d="M282.747,290.563h-19.029c-0.803,0-1.455-0.651-1.455-1.455l0,0c0-0.804,0.652-1.455,1.455-1.455h19.029
					c0.804,0,1.455,0.651,1.455,1.455l0,0C284.202,289.912,283.55,290.563,282.747,290.563z"/>
			</g>
			<g>
				<path fill="#E0E0E0" d="M308.642,290.563h-19.028c-0.804,0-1.453-0.651-1.453-1.455l0,0c0-0.804,0.649-1.455,1.453-1.455h19.028
					c0.804,0,1.455,0.651,1.455,1.455l0,0C310.097,289.912,309.446,290.563,308.642,290.563z"/>
			</g>
			<g>
				<path fill="#E0E0E0" d="M164.01,288.526h-8.027c-0.804,0-1.455-0.651-1.455-1.455l0,0c0-0.803,0.651-1.455,1.455-1.455h8.027
					c0.804,0,1.455,0.652,1.455,1.455l0,0C165.465,287.875,164.813,288.526,164.01,288.526z"/>
			</g>
			<g>
				<path fill="#E0E0E0" d="M161.607,312.069h-5.625c-0.804,0-1.455-0.652-1.455-1.456l0,0c0-0.804,0.651-1.455,1.455-1.455h5.625
					c0.806,0,1.456,0.651,1.456,1.455l0,0C163.063,311.417,162.411,312.069,161.607,312.069z"/>
			</g>
			<g>
				<path fill="#E0E0E0" d="M171.597,296.374h-15.615c-0.804,0-1.455-0.649-1.455-1.455l0,0c0-0.804,0.651-1.455,1.455-1.455h15.615
					c0.804,0,1.455,0.651,1.455,1.455l0,0C173.052,295.722,172.401,296.374,171.597,296.374z"/>
			</g>
			<g>
				<path fill="#E0E0E0" d="M168.857,304.221h-12.875c-0.804,0-1.455-0.651-1.455-1.455l0,0c0-0.806,0.651-1.455,1.455-1.455h12.875
					c0.806,0,1.455,0.649,1.455,1.455l0,0C170.313,303.57,169.661,304.221,168.857,304.221z"/>
			</g>
			<g>
				<circle fill="#455A64" cx="186.722" cy="258.448" r="1.478"/>
			</g>
			<g>
				<circle fill="#455A64" cx="186.722" cy="250.684" r="1.478"/>
			</g>
			<g>
				<circle fill="#455A64" cx="186.722" cy="266.042" r="1.478"/>
			</g>
			<g>
				<circle fill="#455A64" cx="186.722" cy="273.936" r="1.478"/>
			</g>
			<g>
				<circle fill="#455A64" cx="186.722" cy="281.831" r="1.478"/>
			</g>
			<g>
				<circle fill="#455A64" cx="186.722" cy="289.725" r="1.478"/>
			</g>
			<g>
				<circle fill="#455A64" cx="186.722" cy="297.62" r="1.478"/>
			</g>
			<g>
				<circle fill="#455A64" cx="186.722" cy="305.514" r="1.478"/>
			</g>
			<g>
				<circle fill="#455A64" cx="186.722" cy="313.409" r="1.478"/>
			</g>
			<g>
				<circle fill="#455A64" cx="186.722" cy="321.303" r="1.478"/>
			</g>
			<g>
				<circle fill="#455A64" cx="186.722" cy="329.198" r="1.478"/>
			</g>
			<g>
				<circle fill="#455A64" cx="186.722" cy="337.092" r="1.478"/>
			</g>
			<g>
				<circle fill="#455A64" cx="186.722" cy="344.987" r="1.478"/>
			</g>
			<path fill="#E0E0E0" d="M324.877,227.312H153.766c-2.982,0-5.403,2.419-5.403,5.401v10.239h180.352v-11.807
				C328.712,229.029,326.994,227.312,324.877,227.312z"/>
			<g>
				<circle fill="#FFFFFF" cx="157.683" cy="235.606" r="2.148"/>
				<circle fill="#FFFFFF" cx="164.293" cy="235.606" r="2.148"/>
				<circle fill="#FFFFFF" cx="170.904" cy="235.606" r="2.148"/>
			</g>
		</g>
		<polygon fill="#FFFFFF" points="186.722,355.885 201.966,372.365 215.804,355.885 		"/>
		<g>
			<path fill="#263238" d="M323.822,357.675c-0.007-0.034,0.565,0.051,1.578-0.293c0.5-0.173,1.104-0.479,1.682-1.013
				c0.579-0.522,1.13-1.298,1.399-2.296c0.149-0.498,0.185-1.043,0.173-1.626c-0.002-0.583-0.004-1.196-0.006-1.84
				c-0.004-1.287-0.008-2.695-0.013-4.219c-0.007-3.053-0.017-6.569-0.023-10.529c-0.02-15.853-0.048-38.773-0.083-67.098
				c-0.006-7.082-0.011-14.502-0.017-22.233c-0.003-3.866-0.006-7.809-0.008-11.827c-0.016-0.994,0.024-2.037-0.03-3.004
				c-0.111-0.963-0.517-1.899-1.179-2.622c-0.647-0.737-1.55-1.239-2.512-1.45c-0.954-0.174-2.023-0.068-3.059-0.099
				c-16.656,0.007-34.452,0.015-53.179,0.024c-18.729,0.005-38.386,0.01-58.764,0.015c-10.19,0.001-20.561,0.002-31.083,0.004
				c-5.264,0-10.563,0-15.898,0.001c-2.667,0-5.344,0-8.029,0c-0.659,0.01-1.369-0.024-1.986,0.023
				c-0.636,0.063-1.255,0.262-1.809,0.575c-1.109,0.626-1.944,1.731-2.229,2.979c-0.205,0.853-0.098,1.813-0.125,2.754v2.818
				c0,1.877,0,3.75,0,5.616c0,3.737,0,7.458,0,11.16c0,7.404-0.001,14.736-0.002,21.986c-0.002,14.501-0.006,28.674-0.009,42.44
				c-0.002,6.884-0.004,13.664-0.006,20.337c-0.001,3.335-0.002,6.643-0.003,9.921c0.006,1.633-0.016,3.286,0.015,4.881
				c0.069,1.551,1.001,3.005,2.335,3.758c0.659,0.389,1.424,0.582,2.184,0.607c0.799,0.002,1.596,0.005,2.391,0.007
				c1.596,0.001,3.183,0.002,4.762,0.002c3.155,0.002,6.281,0.003,9.376,0.004c6.186,0.003,12.24,0.006,18.154,0.009h0.097
				l0.064,0.069c4.796,5.05,9.451,9.949,13.96,14.695l-0.313,0.012c4.281-5.091,8.386-9.975,12.345-14.684l0.061-0.068h0.092
				c33.757,0.037,61.179,0.064,80.17,0.087c9.485,0.021,16.864,0.041,21.883,0.053c2.499,0.013,4.408,0.022,5.701,0.028
				C323.161,357.656,323.822,357.675,323.822,357.675s-0.659,0.021-1.942,0.029c-1.293,0.007-3.202,0.018-5.701,0.028
				c-5.019,0.012-12.396,0.03-21.883,0.053c-18.991,0.021-46.413,0.051-80.17,0.087l0.149-0.068
				c-3.953,4.714-8.051,9.602-12.323,14.696l-0.151,0.182l-0.162-0.171c-4.515-4.742-9.175-9.639-13.978-14.683l0.158,0.068
				c-5.915,0.003-11.97,0.006-18.154,0.009c-3.095,0.001-6.221,0.003-9.376,0.004c-1.579,0.001-3.166,0.001-4.762,0.002
				c-0.799-0.002-1.6-0.004-2.401-0.005c-0.836-0.027-1.68-0.242-2.408-0.668c-1.471-0.828-2.498-2.433-2.578-4.143
				c-0.032-1.652-0.01-3.267-0.018-4.91c-0.001-3.278-0.002-6.586-0.003-9.921c-0.004-6.673-0.006-13.453-0.007-20.336
				c-0.002-13.77-0.005-27.94-0.008-42.441c0-7.25-0.001-14.582-0.002-21.986c0-3.703,0-7.423,0-11.16c0-1.866,0-3.739,0-5.616
				v-2.818v-1.411c-0.009-0.464,0.024-0.984,0.138-1.461c0.318-1.39,1.245-2.617,2.481-3.313c0.616-0.353,1.307-0.572,2.011-0.644
				c0.725-0.052,1.358-0.015,2.041-0.024c2.687,0,5.362,0,8.029,0c5.336,0,10.636,0,15.898,0.001
				c10.522,0.001,20.893,0.002,31.083,0.004c20.378,0.005,40.035,0.01,58.764,0.015c18.727,0.008,36.521,0.017,53.179,0.024
				c1.044,0.031,2.063-0.081,3.146,0.11c1.053,0.23,2.031,0.782,2.737,1.585c0.723,0.788,1.163,1.813,1.282,2.861
				c0.061,1.057,0.016,2.035,0.028,3.049c-0.003,4.02-0.007,7.961-0.01,11.827c-0.006,7.731-0.012,15.151-0.017,22.233
				c-0.035,28.322-0.063,51.245-0.083,67.098c-0.009,3.96-0.017,7.479-0.023,10.529c-0.005,1.521-0.009,2.932-0.013,4.219
				c-0.002,0.644-0.004,1.257-0.006,1.84c0.007,0.581-0.033,1.149-0.189,1.653c-0.284,1.019-0.854,1.801-1.446,2.328
				c-0.596,0.533-1.209,0.837-1.72,1.003c-0.511,0.169-0.917,0.218-1.187,0.234C323.956,357.677,323.822,357.675,323.822,357.675z"
				/>
		</g>
	</g>
	<g>
		<path fill="#FFFFFF" d="M298.15,203.976H162.525c-1.75,0-3.169-1.419-3.169-3.169V131.66c0-1.75,1.418-3.169,3.169-3.169H298.77
			c1.751,0,3.17,1.419,3.17,3.169v68.526C301.94,202.279,300.241,203.976,298.15,203.976z"/>
		<path fill="#E0E0E0" d="M301.94,144.701H159.356v-12.737c0-1.918,1.557-3.473,3.475-3.473h135.637
			c1.918,0,3.474,1.555,3.474,3.473L301.94,144.701L301.94,144.701z"/>
		<g>
			<path fill="#263238" d="M297.928,203.976c-0.003-0.024,0.383,0.014,1.088-0.183c0.679-0.196,1.745-0.728,2.418-1.996
				c0.338-0.629,0.485-1.417,0.438-2.301c-0.004-0.884-0.008-1.85-0.013-2.896c-0.007-2.097-0.015-4.51-0.021-7.229
				c-0.021-10.886-0.05-26.618-0.083-46.056c-0.003-2.431-0.008-4.919-0.011-7.463c-0.001-1.272-0.003-2.56-0.004-3.858
				c0.113-1.263-0.584-2.503-1.731-3.024c-0.571-0.283-1.188-0.293-1.871-0.277c-0.67,0-1.344,0.001-2.02,0.002
				c-1.354,0.001-2.722,0.002-4.101,0.004c-2.758,0.002-5.565,0.005-8.425,0.007c-11.434,0.007-23.648,0.018-36.503,0.024
				c-25.71,0.006-53.974,0.013-83.641,0.021c-0.478,0-0.908-0.014-1.322,0.093c-0.417,0.098-0.813,0.278-1.16,0.53
				c-0.696,0.501-1.179,1.284-1.309,2.127c-0.067,0.409-0.039,0.876-0.046,1.338v1.381v2.752c0,3.664,0,7.303-0.002,10.916
				c-0.001,7.226-0.002,14.345-0.004,21.341s-0.004,13.867-0.006,20.597c-0.001,3.365-0.003,6.695-0.004,9.986
				c-0.065,1.573,0.912,3.086,2.354,3.645c0.712,0.313,1.479,0.284,2.304,0.278c0.809,0,1.614,0,2.418,0.001
				c25.71,0.021,48.864,0.04,68.312,0.056c19.438,0.035,35.168,0.063,46.055,0.083c5.43,0.021,9.646,0.038,12.521,0.049
				c1.424,0.013,2.514,0.021,3.257,0.026C297.552,203.958,297.928,203.976,297.928,203.976s-0.376,0.018-1.109,0.024
				c-0.743,0.006-1.833,0.017-3.257,0.026c-2.873,0.011-7.091,0.028-12.521,0.049c-10.887,0.021-26.615,0.048-46.055,0.083
				c-19.446,0.017-42.602,0.035-68.312,0.056c-0.804,0-1.609,0.001-2.418,0.001c-0.782,0.009-1.683,0.041-2.486-0.311
				c-1.626-0.62-2.734-2.354-2.661-4.094c-0.001-3.292-0.003-6.621-0.004-9.986c-0.002-6.729-0.004-13.602-0.006-20.597
				c-0.001-6.996-0.002-14.116-0.004-21.341c0-3.613,0-7.252-0.001-10.916v-2.752v-1.381c0.008-0.457-0.027-0.917,0.051-1.42
				c0.151-0.979,0.711-1.887,1.519-2.467c0.399-0.292,0.859-0.503,1.345-0.617c0.488-0.123,0.993-0.104,1.442-0.104
				c29.667,0.007,57.931,0.014,83.641,0.021c12.854,0.01,25.069,0.019,36.503,0.024c2.857,0.002,5.667,0.005,8.425,0.007
				c1.379,0.001,2.745,0.002,4.101,0.004c0.676,0,1.35,0.001,2.02,0.002c0.646-0.017,1.408-0.005,2.041,0.319
				c1.303,0.576,2.088,2.047,1.957,3.39c-0.001,1.3-0.003,2.586-0.004,3.858c-0.003,2.544-0.006,5.033-0.011,7.463
				c-0.033,19.438-0.063,35.17-0.083,46.056c-0.009,2.718-0.017,5.132-0.021,7.229c-0.005,1.046-0.009,2.012-0.013,2.896
				c0.001,0.438-0.007,0.871-0.087,1.271c-0.091,0.396-0.221,0.761-0.392,1.081c-0.707,1.294-1.805,1.813-2.497,1.999
				C298.312,204.026,297.928,203.976,297.928,203.976z"/>
		</g>
		<g>
			<circle fill="#FFFFFF" cx="169.967" cy="137.86" r="2.655"/>
			<circle fill="#FFFFFF" cx="178.137" cy="137.86" r="2.655"/>
			<circle fill="#FFFFFF" cx="186.307" cy="137.86" r="2.655"/>
		</g>
		<g>
			<g>
				<path fill="#263238" d="M200.441,167.544h-16.573c-0.993,0-1.8-0.805-1.8-1.798l0,0c0-0.993,0.807-1.798,1.8-1.798h16.573
					c0.993,0,1.798,0.805,1.798,1.798l0,0C202.239,166.739,201.434,167.544,200.441,167.544z"/>
			</g>
			<g>
				<path fill="#E0E0E0" d="M200.441,176.958h-16.573c-0.993,0-1.8-0.805-1.8-1.798l0,0c0-0.993,0.807-1.798,1.8-1.798h16.573
					c0.993,0,1.798,0.805,1.798,1.798l0,0C202.239,176.152,201.434,176.958,200.441,176.958z"/>
			</g>
			<g>
				<path fill="#E0E0E0" d="M287.938,167.544h-48.076c-0.991,0-1.798-0.805-1.798-1.798l0,0c0-0.993,0.807-1.798,1.798-1.798h48.076
					c0.993,0,1.798,0.805,1.798,1.798l0,0C289.736,166.739,288.931,167.544,287.938,167.544z"/>
			</g>
			<g>
				<path fill="#FF725E" d="M200.441,186.686h-16.573c-0.993,0-1.8-0.807-1.8-1.798l0,0c0-0.993,0.807-1.8,1.8-1.8h16.573
					c0.993,0,1.798,0.807,1.798,1.8l0,0C202.239,185.88,201.434,186.686,200.441,186.686z"/>
			</g>
			<g>
				<path fill="#FF725E" d="M276.469,176.958h-16.575c-0.993,0-1.798-0.805-1.798-1.798l0,0c0-0.993,0.805-1.798,1.798-1.798h16.575
					c0.993,0,1.798,0.805,1.798,1.798l0,0C278.267,176.152,277.462,176.958,276.469,176.958z"/>
			</g>
			<g>
				<path fill="#455A64" d="M226.996,167.544H210.42c-0.993,0-1.798-0.805-1.798-1.798l0,0c0-0.993,0.805-1.798,1.798-1.798h16.575
					c0.991,0,1.798,0.805,1.798,1.798l0,0C228.794,166.739,227.989,167.544,226.996,167.544z"/>
			</g>
			<g>
				<path fill="#263238" d="M248.352,176.958H210.42c-0.993,0-1.798-0.805-1.798-1.798l0,0c0-0.993,0.805-1.798,1.798-1.798h37.932
					c0.993,0,1.798,0.805,1.798,1.798l0,0C250.15,176.152,249.345,176.958,248.352,176.958z"/>
			</g>
			<g>
				<path fill="#E0E0E0" d="M285.557,186.686h-75.218c-0.948,0-1.717-0.807-1.717-1.798l0,0c0-0.993,0.769-1.8,1.717-1.8h75.218
					c0.949,0,1.718,0.807,1.718,1.8l0,0C287.275,185.88,286.506,186.686,285.557,186.686z"/>
			</g>
			<g>
				<path fill="#E0E0E0" d="M247.562,193.538H210.42c-0.993,0-1.798-0.805-1.798-1.799l0,0c0-0.993,0.805-1.798,1.798-1.798h37.142
					c0.993,0,1.798,0.805,1.798,1.798l0,0C249.36,192.733,248.555,193.538,247.562,193.538z"/>
			</g>
			<g>
				<circle fill="#455A64" cx="173.915" cy="165.746" r="1.827"/>
			</g>
			<g>
				<circle fill="#455A64" cx="173.915" cy="156.737" r="1.827"/>
			</g>
			<g>
				<circle fill="#455A64" cx="173.915" cy="175.131" r="1.827"/>
			</g>
			<g>
				<circle fill="#455A64" cx="173.915" cy="184.887" r="1.827"/>
			</g>
		</g>
		<path fill="#455A64" d="M193.61,158.046h-10.207c-0.527,0-0.958-0.429-0.958-0.958v-1.553c0-0.529,0.431-0.958,0.958-0.958h10.207
			c0.529,0,0.958,0.429,0.958,0.958v1.553C194.568,157.617,194.139,158.046,193.61,158.046z"/>
	</g>
</g>
<g id="Coffee">
	<g>
		<g>
			<g>
				<g>
					<path fill="#6F4439" d="M89.532,439.012c-8.343,3.632-16.379,3.966-24.02,0l-5.576-46.732h34.655L89.532,439.012z"/>
				</g>
				<g>
					<g>
						<g>
							<g>
								<path fill="#E0E0E0" d="M92.299,389.568l-1.043-3.337l-26.104-3.188c-0.711-0.087-1.386,0.336-1.617,1.015l-1.896,5.513
									h-3.337v6.049c13.109,2.313,25.659,2.446,37.544,0v-6.049L92.299,389.568L92.299,389.568z"/>
								<g>
									<path fill="#263238" d="M92.299,389.568c0.005-0.007,0.088-0.014,0.244-0.021c0.185-0.006,0.411-0.014,0.688-0.021
										c0.638-0.013,1.505-0.03,2.614-0.054l0.098-0.003l0.001,0.102c0.017,1.561,0.035,3.602,0.06,6.049l0.001,0.127
										l-0.126,0.026c-4.156,0.874-9.682,1.708-16.115,1.842c-6.43,0.154-13.745-0.382-21.361-1.715l-0.145-0.023l-0.215-0.036
										v-0.221c0.001-2.054,0.002-4.076,0.002-6.049v-0.258h0.258c1.13,0.001,2.243,0.002,3.337,0.003l-0.241,0.172
										c0.64-1.846,1.263-3.649,1.867-5.404c0.135-0.483,0.525-0.956,1.015-1.15c0.245-0.104,0.514-0.15,0.774-0.139
										c0.261,0.021,0.459,0.057,0.691,0.081c0.894,0.111,1.771,0.223,2.638,0.328c3.454,0.437,6.67,0.839,9.587,1.206
										c5.774,0.75,10.355,1.345,13.299,1.729l0.064,0.008l0.018,0.06c0.306,1.052,0.543,1.875,0.718,2.479
										c0.072,0.264,0.133,0.478,0.181,0.652C92.287,389.481,92.304,389.561,92.299,389.568s-0.033-0.061-0.083-0.195
										c-0.059-0.168-0.131-0.372-0.219-0.623c-0.203-0.604-0.479-1.433-0.833-2.487l0.081,0.065
										c-2.949-0.337-7.539-0.862-13.324-1.522c-2.92-0.348-6.139-0.729-9.596-1.14c-0.865-0.104-1.746-0.208-2.642-0.313
										c-0.47-0.056-0.865-0.146-1.216,0.025c-0.359,0.156-0.623,0.454-0.74,0.863c-0.601,1.757-1.219,3.563-1.851,5.41
										l-0.061,0.172h-0.183c-1.094,0.001-2.207,0.002-3.337,0.004l0.258-0.259c0.001,1.973,0.001,3.995,0.002,6.049l-0.215-0.256
										l0.144,0.021c7.586,1.327,14.862,1.883,21.264,1.766c6.402-0.1,11.906-0.875,16.061-1.687l-0.125,0.153
										c0.023-2.447,0.042-4.488,0.06-6.049l0.098,0.099c-1.128-0.021-2.014-0.04-2.66-0.053c-0.27-0.01-0.49-0.018-0.67-0.024
										C92.367,389.583,92.294,389.575,92.299,389.568z"/>
								</g>
							</g>
						</g>
					</g>
				</g>
				<g>
					<path fill="#AE7461" d="M91.976,423.52c-9.055,1.463-19.049,1.252-29.626,0l-1.439-14.167c11.158,1.2,22.105,1.252,32.813,0
						L91.976,423.52z"/>
				</g>
				<g>
					<g>
						<path fill="#6F4439" d="M75.309,413.902c-1.354,0.821-1.905,2.546-1.222,4.016l0.94,2.029
							c0.684,1.472,2.355,2.163,3.856,1.657L75.309,413.902z"/>
					</g>
					<g>
						<path fill="#6F4439" d="M75.941,413.609l3.577,7.702c1.355-0.82,1.904-2.546,1.224-4.019l-0.942-2.026
							C79.115,413.796,77.442,413.103,75.941,413.609z"/>
					</g>
				</g>
			</g>
		</g>
		<g>
			<path fill="#263238" d="M92.594,389.657c0.008,0.035-0.412,0.16-1.18,0.356c-0.769,0.2-1.891,0.439-3.285,0.688
				c-2.79,0.501-6.7,0.947-11.034,0.941c-4.335-0.015-8.244-0.478-11.031-0.989c-1.395-0.255-2.517-0.499-3.28-0.704
				c-0.769-0.2-1.188-0.326-1.18-0.361c0.009-0.033,0.443,0.024,1.223,0.163c0.774,0.146,1.902,0.332,3.298,0.539
				c2.789,0.418,6.671,0.819,10.974,0.832c4.301,0.005,8.185-0.379,10.975-0.784c1.396-0.199,2.524-0.385,3.303-0.523
				C92.151,389.68,92.586,389.622,92.594,389.657z"/>
		</g>
	</g>
</g>
<g id="Device">
	<g>
		<path fill="#E0E0E0" d="M110.403,320.165c0,0-5.709,1.229-6.699,5.282c-0.992,4.053,7.95,100.995,8.311,103.356
			c0.564,3.71,3.693,8.422,10.741,8.169c6.142-0.221,89.852-0.026,110.93,0.021c2.801,0.008,4.484-2.379,4.854-5.217l0,0
			l-103.646-6.117L110.403,320.165z"/>
		<g>
			<path fill="#E0E0E0" d="M107.804,323.397l8.979,104.547c0.172,1.707,1.595,3.018,3.312,3.044l118.444,0.531l-22.753-22.578
				l-76.945-0.543l-8.229-81.905c-0.113-1.089-0.904-1.984-1.972-2.231l-17.236-4.019
				C109.44,319.787,107.609,321.392,107.804,323.397z"/>
			<g>
				<path fill="#263238" d="M107.805,323.397c0,0-0.035-0.169-0.02-0.504c0.013-0.332,0.1-0.853,0.461-1.414
					c0.35-0.557,1.025-1.159,2.014-1.327c0.487-0.097,1.038-0.014,1.575,0.129c0.548,0.125,1.133,0.259,1.754,0.4
					c2.487,0.569,5.55,1.272,9.147,2.1c1.803,0.415,3.736,0.861,5.802,1.337c1.085,0.182,2.064,1.141,2.188,2.331
					c0.115,1.12,0.234,2.271,0.355,3.455c1.926,18.945,4.676,45.996,7.977,78.472l-0.22-0.201
					c23.093,0.153,49.136,0.325,76.945,0.512l0.104,0.001l0.075,0.071c7.291,7.234,14.954,14.838,22.756,22.578l0.452,0.446
					l-0.636-0.003c-1.657-0.008-3.449-0.016-5.247-0.021c-30.803-0.146-60.143-0.284-86.828-0.41
					c-6.671-0.034-13.177-0.067-19.498-0.101c-1.58-0.009-3.149-0.017-4.706-0.022c-0.783-0.009-1.543,0.002-2.337-0.021
					c-0.824-0.05-1.62-0.394-2.219-0.947c-0.604-0.556-1-1.315-1.115-2.118c-0.086-0.778-0.135-1.521-0.204-2.274
					c-0.128-1.503-0.255-2.993-0.381-4.471c-1.003-11.823-1.938-22.837-2.792-32.894c-1.691-20.104-3.062-36.373-4.007-47.629
					c-0.462-5.617-0.819-9.979-1.063-12.952c-0.115-1.474-0.203-2.6-0.263-3.369C107.82,323.788,107.805,323.397,107.805,323.397
					s0.051,0.388,0.125,1.146c0.072,0.771,0.177,1.895,0.314,3.364c0.267,2.97,0.655,7.33,1.159,12.942
					c0.986,11.253,2.411,27.518,4.174,47.612c0.873,10.056,1.83,21.064,2.854,32.887c0.128,1.479,0.257,2.969,0.387,4.472
					c0.069,0.745,0.122,1.52,0.205,2.251c0.104,0.701,0.451,1.37,0.979,1.854c0.524,0.485,1.225,0.786,1.942,0.828
					c0.75,0.021,1.543,0.011,2.315,0.018c1.557,0.006,3.125,0.013,4.706,0.02c6.321,0.023,12.826,0.051,19.498,0.075
					c26.687,0.113,56.026,0.238,86.826,0.37c1.797,0.008,3.589,0.018,5.247,0.023l-0.187,0.443
					c-7.801-7.741-15.461-15.347-22.751-22.582l0.18,0.075c-27.81-0.209-53.852-0.403-76.943-0.576l-0.201-0.002l-0.02-0.199
					c-3.227-32.481-5.911-59.54-7.792-78.487c-0.117-1.186-0.23-2.335-0.343-3.454c-0.111-1.082-0.984-1.959-1.998-2.137
					c-2.062-0.483-3.993-0.939-5.793-1.363c-3.594-0.853-6.649-1.574-9.135-2.162c-0.619-0.147-1.203-0.286-1.75-0.416
					c-0.545-0.15-1.055-0.23-1.531-0.146c-0.953,0.151-1.622,0.729-1.972,1.265c-0.362,0.545-0.46,1.051-0.484,1.378
					C107.794,323.226,107.817,323.397,107.805,323.397z"/>
			</g>
		</g>
		<polygon fill="#263238" points="194.502,428.803 205.512,428.803 191.593,410.749 185.059,410.749 		"/>
		<path fill="#263238" d="M111.874,328.124l8.408,90.836l15.664-12.46l-6.742-76.529c-0.057-0.613-0.525-1.109-1.137-1.196
			l-14.685-2.103C112.528,326.549,111.785,327.263,111.874,328.124z"/>
		<polygon fill="#263238" points="128.698,428.803 140.062,428.803 151.609,410.749 145.074,410.749 		"/>
		<polygon fill="#263238" points="142.646,428.803 153.655,428.803 159.688,410.749 153.154,410.749 		"/>
		<polygon fill="#263238" points="156.122,428.803 167.131,428.803 167.724,410.749 161.189,410.749 		"/>
		<polygon fill="#263238" points="168.616,428.803 179.626,428.803 175.562,410.749 169.027,410.749 		"/>
		<polygon fill="#263238" points="181.641,428.803 192.651,428.803 183.681,410.749 177.146,410.749 		"/>
		<g>
			<path fill="#E0E0E0" d="M204.957,425.285c0,0.086-16.789,0.156-37.494,0.156c-20.712,0-37.498-0.07-37.498-0.156
				c0-0.087,16.785-0.154,37.498-0.154C188.168,425.13,204.957,425.198,204.957,425.285z"/>
		</g>
		<g>
			<path fill="#E0E0E0" d="M202.962,421.973c0,0.086-15.944,0.156-35.608,0.156c-19.67,0-35.609-0.07-35.609-0.156
				s15.939-0.156,35.609-0.156C187.018,421.817,202.962,421.887,202.962,421.973z"/>
		</g>
		<g>
			<path fill="#E0E0E0" d="M202.962,418.969c0,0.173-15.003,0.313-33.506,0.313c-18.511,0-33.508-0.14-33.508-0.313
				c0-0.174,15-0.313,33.508-0.313C187.959,418.657,202.962,418.797,202.962,418.969z"/>
		</g>
		<g>
			<path fill="#E0E0E0" d="M203.423,416.227c0,0.173-14.68,0.313-32.785,0.313c-18.111,0-32.788-0.14-32.788-0.313
				c0-0.172,14.677-0.313,32.788-0.313C188.743,415.915,203.423,416.055,203.423,416.227z"/>
		</g>
		<g>
			<path fill="#E0E0E0" d="M204.957,414.225c0,0.173-14.775,0.313-32.998,0.313c-18.229,0-33.001-0.14-33.001-0.313
				c0-0.172,14.771-0.313,33.001-0.313C190.182,413.913,204.957,414.053,204.957,414.225z"/>
		</g>
		<g>
			<path fill="#E0E0E0" d="M206.583,412.134c0,0.175-15.055,0.313-33.617,0.313c-18.571,0-33.621-0.14-33.621-0.313
				c0-0.173,15.05-0.313,33.621-0.313C191.53,411.822,206.583,411.961,206.583,412.134z"/>
		</g>
		<g>
			<path fill="#E0E0E0" d="M118.438,427.944c6.84-6.397,13.682-12.799,20.521-19.198"/>
			<g>
				
					<ellipse transform="matrix(-0.7302 0.6833 -0.6833 -0.7302 508.4857 635.8135)" fill="#263238" cx="128.695" cy="418.313" rx="14.05" ry="0.26"/>
			</g>
		</g>
	</g>
</g>
<g id="Character_00000013195450124111778170000016365773003215084703_">
	<g>
		<g>
			<path fill="#455A64" d="M478.509,337.238c0,0-1.006-10.613-27.458-17.406c-12.771-3.277-43.261-4.854-46.714,14.961
				c-0.112,0.644-15.176,125.272-15.176,125.272h56.364L478.509,337.238z"/>
			<path fill="#455A64" d="M469.58,460.065h-26.004l8.687-122.106c0.636-5.939,6.785-10.225,13.733-9.565l2.327,0.22
				c6.95,0.657,11.354,7.353,11.152,14.979L469.58,460.065z"/>
			<g>
				<path fill="#263238" d="M445.528,455.67c-0.144-0.014,1.693-24.064,4.104-53.718c2.407-29.663,4.479-53.689,4.621-53.68
					c0.144,0.012-1.692,24.06-4.104,53.722C447.74,431.646,445.671,455.68,445.528,455.67z"/>
			</g>
			<g>
				<path fill="#263238" d="M473.517,331.47c-0.036,0.1-1.354-0.569-3.655-0.859c-2.266-0.306-5.605-0.064-8.673,1.687
					c-3.061,1.766-4.955,4.526-5.835,6.639c-0.911,2.133-0.998,3.605-1.104,3.589c-0.029-0.003-0.033-0.368,0.052-1.023
					c0.082-0.652,0.289-1.596,0.71-2.705c0.813-2.198,2.729-5.109,5.918-6.946c3.195-1.825,6.673-2.01,8.982-1.603
					c1.172,0.196,2.089,0.492,2.693,0.752C473.216,331.255,473.53,331.443,473.517,331.47z"/>
			</g>
		</g>
		<g>
			<g>
				<g>
					<g>
						<g>
							<g>
								<g>
									<path fill="#263238" d="M391.413,178.811c0.263-7.148-4.585-8.114-8.313-7.291c-4.531-3.334-11.41-2.959-15.553,0.849
										c-3.396-1.852-7.763-1.78-11.095,0.184c-3.333,1.962-5.514,5.743-5.541,9.611c-3.888-0.478-7.961,1.765-9.64,5.302
										c-1.678,3.54-0.834,8.111,1.997,10.819c-4.16,1.519-6.753,6.422-5.662,10.713c1.09,4.292,5.71,7.364,10.089,6.711
										l43.863-29.211C394.192,183.729,391.275,182.627,391.413,178.811z"/>
								</g>
							</g>
						</g>
					</g>
				</g>
				<g>
					<g>
						<g>
							<g>
								<g>
									<g>
										<g>
											<g>
												<g>
													<path fill="#BF9B94" d="M346.431,217.021c0.896-19.957,16.97-35.876,36.935-36.586l1.983-0.071
														c21.435,0.489,32.994,18.967,31.913,40.38l-0.565,71.341l-0.14,13.546l-49.009,11.651l-0.498-28.239
														c0,0-20.68-2.466-21.662-23.017C344.911,256.1,345.596,235.583,346.431,217.021z"/>
												</g>
											</g>
										</g>
									</g>
								</g>
							</g>
						</g>
						<g>
							<g>
								<g>
									<g>
										<g>
											<g>
												<g>
													<g>
														<g>
															<path fill="#6F4439" d="M366.879,289.019c0,0,13.155,0.323,26.657-8.843c0,0-5.811,15.021-26.392,13.897
																L366.879,289.019z"/>
														</g>
													</g>
												</g>
											</g>
										</g>
									</g>
								</g>
							</g>
						</g>
						<g>
							<g>
								<g>
									<g>
										<g>
											<g>
												<g>
													<g>
														<g>
															<g>
																<g>
																	<g>
																		<path fill="#263238" d="M352.413,237.757c0,1.554,1.315,2.832,2.938,2.861c1.618,0.029,2.933-1.202,2.933-2.754
																			c-0.001-1.553-1.313-2.834-2.934-2.864C353.729,234.97,352.413,236.205,352.413,237.757z"/>
																	</g>
																</g>
															</g>
														</g>
													</g>
												</g>
											</g>
										</g>
									</g>
								</g>
							</g>
						</g>
						<g>
							<g>
								<g>
									<g>
										<g>
											<g>
												<g>
													<g>
														<g>
															<g>
																<g>
																	<g>
																		<g>
																			<path fill="#263238" d="M351.015,227.975c0.378,0.37,2.543-1.355,5.703-1.459
																				c3.153-0.149,5.529,1.394,5.857,0.995c0.163-0.18-0.23-0.856-1.269-1.557c-1.021-0.695-2.739-1.348-4.708-1.27
																				c-1.968,0.081-3.597,0.864-4.522,1.64C351.133,227.106,350.828,227.81,351.015,227.975z"/>
																		</g>
																	</g>
																</g>
															</g>
														</g>
													</g>
												</g>
											</g>
										</g>
									</g>
								</g>
							</g>
						</g>
						<g>
							<g>
								<g>
									<g>
										<g>
											<g>
												<g>
													<g>
														<g>
															<g>
																<g>
																	<g>
																		<path fill="#263238" d="M377.812,237.106c0,1.552,1.315,2.832,2.937,2.861c1.618,0.028,2.935-1.202,2.935-2.757
																			c-0.001-1.551-1.316-2.833-2.935-2.861C379.126,234.319,377.812,235.553,377.812,237.106z"/>
																	</g>
																</g>
															</g>
														</g>
													</g>
												</g>
											</g>
										</g>
									</g>
								</g>
							</g>
						</g>
						<g>
							<g>
								<g>
									<g>
										<g>
											<g>
												<g>
													<g>
														<g>
															<g>
																<g>
																	<g>
																		<g>
																			<path fill="#263238" d="M381.225,226.46c0.378,0.37,2.547-1.354,5.705-1.458c3.151-0.147,5.53,1.396,5.857,0.994
																				c0.162-0.177-0.229-0.854-1.27-1.554c-1.021-0.697-2.739-1.349-4.708-1.271
																				c-1.967,0.081-3.597,0.864-4.522,1.642C381.347,225.591,381.039,226.295,381.225,226.46z"/>
																		</g>
																	</g>
																</g>
															</g>
														</g>
													</g>
												</g>
											</g>
										</g>
									</g>
								</g>
							</g>
						</g>
						<g>
							<g>
								<g>
									<g>
										<g>
											<g>
												<g>
													<g>
														<g>
															<g>
																<g>
																	<g>
																		<path fill="#263238" d="M371.652,250.247c0.008-0.181-1.968-0.451-5.164-0.745
																			c-0.81-0.054-1.579-0.187-1.732-0.731c-0.211-0.576,0.096-1.458,0.451-2.41c0.688-1.979,1.41-4.054,2.167-6.229
																			c3.005-8.863,5.146-16.142,4.787-16.259c-0.356-0.118-3.082,6.972-6.084,15.836
																			c-0.721,2.187-1.411,4.271-2.063,6.263c-0.272,0.928-0.764,1.984-0.309,3.181
																			c0.239,0.595,0.849,1.012,1.368,1.132c0.523,0.14,0.979,0.132,1.378,0.142
																			C369.657,250.482,371.646,250.427,371.652,250.247z"/>
																	</g>
																</g>
															</g>
														</g>
													</g>
												</g>
											</g>
										</g>
									</g>
								</g>
							</g>
						</g>
						<g>
							<g>
								<g>
									<g>
										<g>
											<g>
												<g>
													<g>
														<g>
															<g>
																<g>
																	<g>
																		<path fill="#263238" d="M381.028,252.101c-0.515-0.014-0.397,3.418-3.248,5.956
																			c-2.844,2.547-6.514,2.292-6.521,2.771c-0.039,0.218,0.838,0.638,2.383,0.625
																			c1.516-0.002,3.709-0.564,5.452-2.119c1.735-1.558,2.437-3.576,2.504-4.985
																			C381.674,252.909,381.262,252.073,381.028,252.101z"/>
																	</g>
																</g>
															</g>
														</g>
													</g>
												</g>
											</g>
										</g>
									</g>
								</g>
							</g>
						</g>
						<g>
							<g>
								<g>
									<g>
										<g>
											<g>
												<g>
													<g>
														<path fill="#263238" d="M380.864,217.437c0.405,0.807,3.103-0.025,6.409-0.089c3.306-0.141,6.086,0.525,6.396-0.304
															c0.135-0.395-0.445-1.123-1.632-1.778c-1.176-0.657-2.968-1.179-4.949-1.119c-1.982,0.063-3.709,0.688-4.807,1.417
															C381.178,216.292,380.684,217.053,380.864,217.437z"/>
													</g>
												</g>
											</g>
										</g>
									</g>
								</g>
							</g>
						</g>
						<g>
							<g>
								<g>
									<g>
										<g>
											<g>
												<g>
													<g>
														<path fill="#263238" d="M351.423,219.285c0.521,0.743,2.73,0.102,5.35,0.188c2.621-0.004,4.81,0.707,5.354-0.021
															c0.239-0.354-0.074-1.089-1.013-1.813c-0.922-0.723-2.489-1.351-4.292-1.377c-1.8-0.027-3.388,0.551-4.333,1.241
															C351.531,218.199,351.195,218.924,351.423,219.285z"/>
													</g>
												</g>
											</g>
										</g>
									</g>
								</g>
							</g>
						</g>
						<g>
							<g>
								<g>
									<g>
										<g>
											<g>
												<g>
													<path fill="#263238" d="M348.073,207.521c0,0,4.965-13.068,11.066-16.293c7.387-3.905,10.916,4.229,18.008,1.974
														c7.091-2.257,14.143-6.002,21.659-0.726c8.228,5.774,4.625,10.161,5.444,19.266
														c3.32,36.914,10.445,47.133,11.75,29.645c0.142-1.916,5.385-3.623,5.884-11.716
														c0.646-10.491,0.596-23.201-2.001-30.541c-2.189-6.185-5.909-10.379-12.476-14.916
														c-10.36-7.16-24.231-6.828-33.614-5.547C364.41,179.949,346.641,191.43,348.073,207.521z"/>
												</g>
											</g>
										</g>
									</g>
								</g>
							</g>
						</g>
						<g>
							<g>
								<g>
									<g>
										<g>
											<g>
												<g>
													<path fill="#BF9B94" d="M414.67,240.872c0.017-3.178,2.659-5.781,5.834-5.593c3.847,0.229,8.189,2.254,8.22,10.187
														c0.052,14.071-14.087,11.222-14.112,10.816C414.594,256.008,414.639,246.761,414.67,240.872z"/>
												</g>
											</g>
										</g>
									</g>
								</g>
							</g>
						</g>
						<g>
							<g>
								<g>
									<g>
										<g>
											<g>
												<g>
													<path fill="#6F4439" d="M417.654,250.978c0.063-0.045,0.246,0.171,0.661,0.357c0.404,0.186,1.1,0.311,1.832,0.031
														c1.485-0.551,2.729-2.916,2.787-5.453c0.031-1.278-0.241-2.499-0.699-3.506c-0.433-1.028-1.102-1.745-1.85-1.875
														c-0.746-0.17-1.274,0.28-1.444,0.677c-0.188,0.396-0.098,0.676-0.172,0.699c-0.039,0.036-0.303-0.235-0.191-0.814
														c0.06-0.279,0.223-0.612,0.553-0.885c0.337-0.274,0.832-0.418,1.354-0.361c1.086,0.069,2.066,1.064,2.569,2.172
														c0.562,1.109,0.896,2.479,0.861,3.919c-0.078,2.836-1.521,5.494-3.554,6.09c-0.989,0.262-1.813-0.033-2.243-0.363
														C417.68,251.317,417.606,251.003,417.654,250.978z"/>
												</g>
											</g>
										</g>
									</g>
								</g>
							</g>
						</g>
					</g>
					<g>
						<g>
							<g>
								<g>
									<g>
										<g>
											<path fill="#263238" d="M413.427,213.648c-1.781,1.311-3.664,2.665-5.856,2.96c-2.189,0.296-4.752-0.878-5.2-3.044
												c-0.199-0.974-0.003-2.116-0.673-2.852c-0.8-0.875-2.206-0.542-3.379-0.375c-4.071,0.579-8.357-2.161-9.541-6.102
												c-0.985,1.598-3.422,1.616-5.035,0.656c-1.612-0.96-2.688-2.589-3.973-3.958c-1.285-1.37-3.063-2.572-4.911-2.242
												c-1.034,0.185-1.982,0.838-3.033,0.782c-1.852-0.1-2.83-2.229-3.174-4.052c-0.345-1.82-0.639-3.95-2.234-4.892
												c-1.482-0.871-3.343-0.271-5.031,0.04c-1.689,0.311-3.898-0.01-4.395-1.656c-0.259-0.861,0.082-1.794,0.538-2.57
												c2.066-3.523,6.785-5.226,10.624-3.829c1.21-4.693,5.425-8.462,10.227-9.144c4.799-0.68,9.896,1.771,12.358,5.945
												c2.875-2.801,7.151-4.086,11.097-3.333c3.94,0.753,7.442,3.521,9.085,7.187c3.388-1.021,7.33,0.163,9.597,2.882
												c2.266,2.717,2.72,6.811,1.104,9.959c2.578,1.354,4.83,3.785,4.986,6.693c0.155,2.907-2.575,5.907-5.41,5.241
												c1.215,2.225,0.4,5.333-1.749,6.676c-2.147,1.345-5.3,0.714-6.767-1.353"/>
										</g>
									</g>
								</g>
							</g>
						</g>
					</g>
				</g>
				<g>
					<g>
						<g>
							<g>
								<g>
									<g>
										<path fill="#455A64" d="M422.227,207.881c0.048-0.039,0.302,1.174-0.779,2.733c-0.536,0.742-1.47,1.526-2.757,1.78
											c-1.259,0.258-2.822,0.002-4.049-1.022l0.591-0.108c-0.652,1.232-1.525,2.5-2.681,3.604
											c-0.744,0.704-1.576,1.313-2.505,1.683c-0.909,0.401-1.958,0.475-2.82,0.364c-1.788-0.134-3.377-1.035-4.139-2.183
											c-0.79-1.121-1.064-2.179-1.242-2.885c-0.168-0.716-0.196-1.12-0.148-1.134c0.063-0.016,0.193,0.367,0.45,1.04
											c0.262,0.664,0.623,1.66,1.394,2.627c1.404,1.97,5.781,2.846,8.454-0.103c1.072-1.025,1.919-2.222,2.561-3.38l0.23-0.423
											l0.359,0.313c0.996,0.867,2.336,1.142,3.427,0.959c1.109-0.171,1.958-0.798,2.497-1.431
											C422.152,208.997,422.103,207.849,422.227,207.881z"/>
									</g>
								</g>
							</g>
						</g>
					</g>
				</g>
			</g>
			<g>
				<path fill="#BF9B94" d="M256.021,391.955c0,0-26.526-0.795-28.118-1.292c-1.589-0.497-5.464-0.596-7.352,0
					s-9.438,3.278-9.438,3.278l-16.024,4.271c0,0-16.104,10.534-15.77,12.645c0.337,2.105,2.086,3.552,4.97,2.459
					c2.882-1.093,17.421-8.646,17.421-8.646l15.959-1.688c0,0,21.827,7.84,26.23,7.451c4.405-0.391,15.698-2.3,15.698-2.3
					s1.59-11.313,0.795-13.103C259.597,393.246,256.021,391.955,256.021,391.955z"/>
				<g>
					<path fill="#BF9B94" d="M180.472,420.225c0,0,13.443-14.416,17.169-16.359c3.727-1.943,24.457-5.345,24.457-5.345
						s6.641-2.754,9.07-1.782c2.43,0.973,28.183,4.859,29.315,5.021c1.136,0.162-5.507,22.678-5.507,22.678
						s-8.909,1.619-19.273-0.81c-10.366-2.432-13.931-5.671-13.931-5.671l-10.348-2.718l-6.332,2.415c0,0-1.137,9.373-5.672,8.887
						l-2.106-1.458l1.62-10.365l-6.641,2.755c0,0-5.185,7.772-9.07,6.641C179.338,422.978,180.472,420.225,180.472,420.225z"/>
					<g>
						<path fill="#6F4439" d="M180.472,420.225c0.026,0.002-0.165,0.375-0.103,1.124c0.038,0.368,0.168,0.829,0.501,1.266
							c0.329,0.438,0.855,0.826,1.521,1.108c0.665,0.281,1.459,0.521,2.333,0.335c0.864-0.197,1.729-0.68,2.573-1.306
							c1.686-1.271,3.326-3.126,4.88-5.359l0.025-0.036l0.039-0.019c1.989-0.833,4.228-1.77,6.631-2.773l0.271-0.113l-0.045,0.292
							c-0.479,3.119-1.017,6.618-1.593,10.37l-0.08-0.188c0.643,0.44,1.37,0.941,2.108,1.452l-0.093-0.033
							c0.85,0.076,1.691-0.25,2.336-0.857c0.65-0.602,1.161-1.393,1.548-2.25c0.783-1.711,1.271-3.639,1.552-5.609l0.019-0.132
							l0.121-0.047c1.972-0.755,4.125-1.58,6.327-2.424l0.069-0.026l0.069,0.021c3.271,0.854,6.761,1.767,10.353,2.706l0.046,0.012
							l0.055,0.043c2.034,1.59,4.587,2.686,7.159,3.649c2.603,0.933,5.341,1.688,8.155,2.268c2.814,0.575,5.733,0.885,8.701,0.98
							c2.96,0.083,5.991-0.029,8.979-0.496l-0.203,0.182c0.458-1.589,0.95-3.297,1.445-5.015c1.422-5.095,2.853-10.107,3.892-15.063
							c0.118-0.618,0.234-1.242,0.282-1.847c0.012-0.148,0.015-0.302,0-0.419c0.011-0.065-0.062-0.104,0.042-0.021
							c0.018,0.01,0.038,0.017,0.057,0.017l-0.023-0.005l-0.061-0.01l-0.116-0.018l-0.936-0.142
							c-1.241-0.188-2.476-0.38-3.701-0.565c-2.447-0.386-4.864-0.769-7.246-1.144c-4.758-0.769-9.366-1.521-13.789-2.363
							c-1.106-0.23-2.188-0.416-3.284-0.752c-0.981-0.385-2.067-0.253-3.111-0.097c-2.094,0.372-4.1,1.058-5.995,1.801l-0.026,0.011
							l-0.021,0.004c-7.247,1.219-13.876,2.41-19.658,3.798c-1.442,0.349-2.837,0.725-4.12,1.206
							c-1.266,0.497-2.28,1.398-3.268,2.21c-1.957,1.66-3.657,3.303-5.189,4.782c-3.057,2.97-5.383,5.374-6.977,7.002
							c-0.784,0.805-1.392,1.427-1.814,1.863C180.694,420.02,180.472,420.225,180.472,420.225s0.191-0.238,0.585-0.676
							c0.414-0.444,1.004-1.084,1.77-1.906c1.563-1.657,3.86-4.091,6.896-7.094c1.521-1.493,3.21-3.149,5.167-4.835
							c0.491-0.42,0.997-0.842,1.542-1.24c0.535-0.407,1.136-0.79,1.799-1.041c1.316-0.503,2.71-0.888,4.159-1.244
							c5.797-1.423,12.419-2.644,19.673-3.884l-0.048,0.014c1.926-0.763,3.933-1.456,6.087-1.846
							c1.063-0.164,2.238-0.314,3.344,0.104c1.012,0.31,2.129,0.503,3.221,0.728c4.411,0.832,9.021,1.574,13.776,2.338
							c2.379,0.371,4.796,0.749,7.244,1.131c1.228,0.187,2.459,0.375,3.7,0.563l0.932,0.141l0.116,0.018l0.061,0.009l0.03,0.007
							c0.036,0.009,0.074,0.021,0.11,0.042c0.229,0.173,0.194,0.312,0.221,0.396c0.023,0.195,0.018,0.36,0.004,0.526
							c-0.052,0.654-0.17,1.278-0.29,1.91c-1.044,5-2.472,10.004-3.896,15.104c-0.496,1.722-0.988,3.432-1.447,5.021l-0.046,0.158
							l-0.157,0.022c-3.057,0.479-6.094,0.585-9.089,0.501c-2.993-0.099-5.938-0.414-8.785-0.999
							c-2.844-0.589-5.593-1.352-8.225-2.299c-1.313-0.479-2.592-1.017-3.824-1.619c-1.229-0.616-2.414-1.26-3.49-2.14l0.103,0.055
							c-3.589-0.947-7.077-1.868-10.344-2.729l0.139-0.008c-2.205,0.838-4.36,1.655-6.334,2.405l0.139-0.178
							c-0.293,2.022-0.79,3.963-1.606,5.734c-0.403,0.885-0.938,1.718-1.651,2.372c-0.704,0.664-1.688,1.049-2.651,0.949
							l-0.05-0.006l-0.042-0.028c-0.735-0.513-1.461-1.017-2.103-1.463l-0.101-0.067l0.021-0.118
							c0.596-3.748,1.149-7.245,1.646-10.361l0.229,0.178c-2.41,0.99-4.653,1.911-6.65,2.731l0.063-0.055
							c-1.594,2.253-3.253,4.104-4.985,5.381c-0.867,0.629-1.759,1.115-2.666,1.311c-0.923,0.188-1.769-0.083-2.432-0.379
							c-0.679-0.3-1.221-0.712-1.554-1.177c-0.338-0.464-0.461-0.947-0.484-1.327C180.255,420.583,180.472,420.225,180.472,420.225z
							"/>
					</g>
				</g>
				<g>
					<path fill="#6F4439" d="M221.185,408.025c-0.005,0.036-0.368,0.023-1.021-0.025c-0.653-0.05-1.598-0.14-2.761-0.261
						c-1.207-0.135-2.582-0.288-4.083-0.455c-0.386-0.045-0.777-0.091-1.18-0.139c-0.4-0.063-0.752-0.033-1.174,0.023
						c-0.814,0.111-1.66,0.309-2.519,0.523c-3.373,0.979-6.746,1.63-8.047,3.63c-0.689,0.908-1.011,1.804-1.198,2.417
						c-0.182,0.621-0.229,0.979-0.268,0.979c-0.034-0.003-0.054-0.372,0.069-1.025c0.134-0.646,0.407-1.595,1.1-2.587
						c0.354-0.486,0.796-0.988,1.374-1.409c0.575-0.415,1.276-0.764,2.007-1.019c1.466-0.534,3.095-1.042,4.833-1.489
						c0.872-0.219,1.729-0.414,2.583-0.525c0.411-0.059,0.896-0.081,1.295-0.013c0.399,0.054,0.794,0.104,1.179,0.156
						c1.499,0.208,2.87,0.396,4.074,0.563c1.157,0.169,2.095,0.314,2.739,0.426C220.834,407.911,221.189,407.99,221.185,408.025z"/>
				</g>
				<g>
					<path fill="#6F4439" d="M185.083,415.43c-0.023-0.024,0.366-0.433,1.11-1.119c0.746-0.688,1.848-1.662,3.24-2.824
						c1.396-1.159,3.08-2.516,5.025-3.928c0.977-0.701,2.017-1.419,3.145-2.1c0.567-0.334,1.156-0.66,1.791-0.937
						c0.653-0.275,1.312-0.45,1.982-0.636c5.371-1.48,10.396-1.866,13.976-2.404c1.729-0.215,3.163-0.395,4.261-0.529
						c1.01-0.113,1.567-0.159,1.572-0.124c0.004,0.036-0.545,0.149-1.544,0.325c-1.092,0.179-2.518,0.412-4.236,0.693
						c-3.564,0.63-8.575,1.073-13.893,2.542c-0.661,0.181-1.327,0.359-1.916,0.607c-0.601,0.263-1.176,0.575-1.734,0.899
						c-1.108,0.66-2.146,1.363-3.125,2.048c-1.946,1.382-3.648,2.704-5.07,3.824c-1.354,1.092-2.479,1.997-3.339,2.688
						C185.542,415.104,185.108,415.458,185.083,415.43z"/>
				</g>
			</g>
			<g>
				<path fill="#F6AF18" d="M352.612,321.502c0,0-7.072,9.71-12.676,21.38c-4.803,10.001-20.348,44.048-20.348,44.048l-63.325,3.321
					l0.935,24.469c0,0,61.163,21.789,74.855,17.586c13.69-4.203,28.275-19.989,28.275-19.989l6.55-103.2
					C366.878,309.115,361.446,308.09,352.612,321.502z"/>
				<path fill="#F6AF18" d="M365.852,309.347c0,0-16.237,36.827-18.61,52.431c-4.71,30.972-6.292,50.354-6.292,50.354l-5.521,47.933
					h108.146c0,0,3.581-88.832,1.281-118.616c-1.724-22.313-18.813-36.214-25.806-43.847c-0.421-0.46-2.349-6.708-2.349-6.708
					l-50.396,12.908L365.852,309.347z"/>
				<g>
					<path fill="#263238" d="M360.62,314.945c0.011,0.003-0.032,0.121-0.124,0.349c-0.104,0.251-0.238,0.583-0.412,1.005
						c-0.384,0.908-0.926,2.199-1.617,3.851c-1.394,3.346-3.396,8.197-5.413,14.352c-2.031,6.148-4.021,13.612-5.592,22.031
						c-1.609,8.411-2.911,17.745-3.999,27.572c-1.992,19.676-3.797,37.484-5.105,50.41c-0.669,6.426-1.212,11.636-1.591,15.271
						c-0.196,1.778-0.353,3.17-0.458,4.149c-0.056,0.452-0.1,0.809-0.133,1.077c-0.032,0.243-0.056,0.366-0.063,0.365
						c-0.009-0.003-0.006-0.128,0.01-0.37c0.021-0.271,0.049-0.629,0.081-1.084c0.085-0.981,0.206-2.377,0.361-4.159
						c0.339-3.643,0.826-8.856,1.426-15.29c1.251-12.907,2.902-30.741,4.954-50.432c1.089-9.835,2.407-19.181,4.046-27.604
						c1.604-8.433,3.632-15.908,5.713-22.059c2.067-6.152,4.127-10.99,5.576-14.313c0.715-1.667,1.313-2.942,1.708-3.813
						c0.193-0.413,0.348-0.736,0.461-0.982C360.555,315.052,360.614,314.941,360.62,314.945z"/>
				</g>
				<g opacity="0.3">
					<path d="M416.808,372.921c-0.996-9.813-5.404-19.654-13.479-25.321l-65.94,94.166c11.642,6.275,24.564,12.76,37.5,9.993
						c6.958-1.488,13.145-5.593,18.161-10.639c10.428-10.485,16.085-24.773,20.062-39.021
						C415.763,392.6,417.803,382.734,416.808,372.921z"/>
				</g>
				<g>
					<g>
						<path fill="#F6AF18" d="M424.282,361.545c-8.216,29.073-26.707,64.548-32.385,71.676
							c-11.093,13.923-25.754,16.929-34.501,16.929c-7.44,0-70.319-12.246-88.956-15.907c-3.146-0.617-5.609-3.057-6.271-6.192
							l-0.162-0.771l-8.389-2.26l4.468-22.511l0.891-1.247l89.934,2.828l0,0l26.162-72.863c0.493-0.833,8.05-25.285,28.536-24.177"
							/>
						<g>
							<path fill="#263238" d="M403.61,307.048c0,0-0.229,0.012-0.68,0.011c-0.45,0.009-1.122-0.036-2.005,0.049
								c-1.756,0.104-4.402,0.462-7.559,1.795c-3.128,1.355-6.682,3.813-9.869,7.613c-3.222,3.777-6.053,8.768-8.3,14.781
								l0.014-0.023c-6.607,18.463-15.58,43.534-26.089,72.893l-0.055,0.156l-0.166-0.006c-26.765-0.832-57.342-1.783-89.934-2.797
								l0.219-0.107c-0.276,0.392-0.585,0.818-0.891,1.247l0.043-0.101c-1.292,6.51-2.666,13.436-4.055,20.436
								c-0.143,0.711-0.281,1.421-0.411,2.074l-0.188-0.302c2.912,0.784,5.73,1.543,8.391,2.259l0.161,0.045l0.023,0.153
								c0.286,1.872,1.099,3.598,2.472,4.846c0.672,0.623,1.451,1.132,2.301,1.476c0.838,0.359,1.754,0.498,2.686,0.686
								c3.695,0.722,7.365,1.438,11.006,2.149c7.286,1.4,14.459,2.78,21.501,4.137c14.091,2.67,27.665,5.209,40.614,7.399
								c3.237,0.536,6.438,1.052,9.601,1.498c1.583,0.196,3.156,0.42,4.708,0.49c1.563,0.021,3.124-0.058,4.658-0.231
								c6.151-0.655,11.955-2.604,16.997-5.452c5.059-2.852,9.279-6.663,12.684-10.819c1.679-2.091,3.026-4.373,4.363-6.581
								c1.31-2.228,2.545-4.434,3.716-6.605c9.313-17.428,15.409-32.201,19.283-42.489c1.903-5.161,3.257-9.208,4.118-11.969
								c0.424-1.374,0.747-2.426,0.969-3.143c0.221-0.707,0.347-1.064,0.347-1.064s-0.093,0.366-0.297,1.078
								c-0.211,0.724-0.519,1.776-0.921,3.158c-0.83,2.771-2.154,6.831-4.03,12.006c-3.818,10.317-9.867,25.123-19.149,42.595
								c-1.168,2.179-2.4,4.392-3.709,6.627c-1.336,2.218-2.685,4.51-4.382,6.638c-3.425,4.195-7.679,8.055-12.78,10.939
								c-5.087,2.887-10.944,4.859-17.158,5.53c-1.551,0.181-3.125,0.262-4.712,0.241c-1.601-0.069-3.174-0.294-4.765-0.488
								c-3.171-0.444-6.374-0.955-9.616-1.489c-12.958-2.18-26.536-4.707-40.63-7.369c-7.044-1.354-14.218-2.729-21.505-4.128
								c-3.644-0.71-7.313-1.426-11.008-2.146c-0.91-0.184-1.878-0.325-2.784-0.715c-0.905-0.364-1.737-0.907-2.454-1.573
								c-1.461-1.308-2.344-3.225-2.627-5.117l0.187,0.196c-2.655-0.716-5.476-1.475-8.389-2.259l-0.235-0.063l0.05-0.239
								c0.13-0.653,0.271-1.363,0.409-2.074c1.392-6.999,2.767-13.925,4.059-20.437l0.011-0.055l0.033-0.046
								c0.306-0.429,0.611-0.856,0.891-1.247l0.081-0.113l0.14,0.005c32.591,1.037,63.167,2.012,89.933,2.861l-0.223,0.149
								c10.568-29.336,19.594-54.392,26.238-72.838l0.012-0.025c2.231-5.94,5.129-11.015,8.379-14.78
								c3.228-3.81,6.821-6.266,9.98-7.607c3.187-1.32,5.851-1.653,7.614-1.731c0.886-0.072,1.56-0.015,2.01-0.01
								C403.381,307.031,403.61,307.048,403.61,307.048z"/>
						</g>
					</g>
				</g>
				<g>
					<path fill="#263238" d="M329.095,398.319c-0.154,0.08-1.398-3.248-4.336-6.363c-2.901-3.149-6.132-4.628-6.042-4.774
						c0.022-0.057,0.856,0.235,2.094,0.945c1.232,0.707,2.84,1.88,4.329,3.476c1.482,1.598,2.541,3.283,3.158,4.563
						C328.919,397.446,329.151,398.298,329.095,398.319z"/>
				</g>
				<g>
					<path fill="#263238" d="M359.784,421.719c-0.089,0.013-0.264-1.153-0.783-2.97c-0.52-1.813-1.456-4.261-2.951-6.719
						c-1.503-2.453-3.252-4.407-4.628-5.695c-1.376-1.294-2.332-1.979-2.28-2.055c0.021-0.03,0.276,0.116,0.726,0.408
						c0.452,0.285,1.072,0.752,1.803,1.373c1.46,1.233,3.293,3.191,4.824,5.695c1.526,2.51,2.432,5.033,2.862,6.896
						c0.22,0.932,0.354,1.696,0.398,2.229C359.809,421.421,359.822,421.716,359.784,421.719z"/>
				</g>
				<g opacity="0.3">
					<path d="M335.796,403.522l5.232,0.191c0.847-20.541,5.078-41.021,8.7-61.261C340.5,361.307,338.079,382.656,335.796,403.522z"
						/>
				</g>
				<g>
					<path fill="#263238" d="M417.296,297.602c0.004,0.017-0.166,0.076-0.494,0.172c-0.386,0.104-0.861,0.236-1.439,0.395
						c-1.326,0.354-3.119,0.829-5.301,1.41c-4.477,1.188-10.646,2.896-17.505,4.624c-6.859,1.734-13.132,3.068-17.71,3.821
						c-2.288,0.378-4.146,0.645-5.438,0.774c-0.596,0.063-1.087,0.11-1.483,0.15c-0.341,0.028-0.521,0.035-0.522,0.017
						c-0.002-0.018,0.173-0.059,0.509-0.119c0.396-0.066,0.883-0.147,1.474-0.246c1.277-0.194,3.126-0.518,5.398-0.939
						c4.553-0.843,10.795-2.229,17.647-3.963c6.852-1.728,13.037-3.377,17.54-4.477c2.25-0.557,4.078-0.979,5.346-1.25
						c0.587-0.12,1.07-0.221,1.463-0.302C417.114,297.609,417.29,297.583,417.296,297.602z"/>
				</g>
			</g>
		</g>
	</g>
</g>
</svg>
